<?xml version="1.0" encoding="UTF-8"?>
<svg version="1.1" xmlns="http://www.w3.org/2000/svg" width="759" height="724">
<path d="M0 0 C250.47 0 500.94 0 759 0 C759 238.92 759 477.84 759 724 C508.53 724 258.06 724 0 724 C0 485.08 0 246.16 0 0 Z " fill="#FEFEFE" transform="translate(0,0)"/>
<path d="M0 0 C3.04088616 1.87533766 4.61635775 3.97263754 5.90234375 7.23046875 C6.9381203 15.68529593 5.30884827 22.83958459 2.80859375 30.8671875 C1.1100115 37.17097765 0.57645909 43.36090547 3.65234375 49.29296875 C6.18591864 52.7059269 6.18591864 52.7059269 9.90234375 54.23046875 C15.47285227 54.78998807 18.94421395 53.0899134 23.71484375 50.54296875 C24.42479492 50.17792236 25.13474609 49.81287598 25.86621094 49.43676758 C29.53252923 47.53858792 33.10885149 45.53756228 36.65234375 43.41796875 C45.52175136 38.44572509 57.81758397 36.10025196 67.78515625 38.7265625 C71.08670199 39.51235475 74.40174976 39.49651562 77.77734375 39.54296875 C78.47214844 39.57197266 79.16695313 39.60097656 79.8828125 39.63085938 C85.10326853 39.69476326 87.93193698 38.56358011 91.90234375 35.23046875 C96.94039467 29.45732856 100.5932847 23.09370233 103.90234375 16.23046875 C106.12301881 13.54326532 106.64576213 13.26848084 110.27734375 12.73046875 C114.75977027 13.34873448 116.12610331 14.97008828 118.90234375 18.23046875 C120.32815329 19.70023388 121.76688961 21.15751461 123.21484375 22.60546875 C123.9934375 23.38664062 124.77203125 24.1678125 125.57421875 24.97265625 C127.64554254 26.98142329 129.76350979 28.86713488 131.96484375 30.73046875 C145.1142082 42.1406387 145.1142082 42.1406387 145.90234375 51.23046875 C145.97066406 51.95105469 146.03898437 52.67164063 146.109375 53.4140625 C146.44936788 60.67983617 144.20232391 66.84572453 140.90234375 73.23046875 C141.61519531 73.37742187 142.32804687 73.524375 143.0625 73.67578125 C149.53531592 75.19162239 154.6474942 76.9234689 158.90234375 82.23046875 C159.94557553 84.20826233 160.95349781 86.20569929 161.90234375 88.23046875 C162.88332031 87.94171875 163.86429687 87.65296875 164.875 87.35546875 C179.78548112 83.16667076 195.22781345 81.74876953 209.34375 89.5859375 C215.53900833 93.97081673 220.16786672 99.16146244 222.90234375 106.23046875 C224.39060669 106.30563721 224.39060669 106.30563721 225.90893555 106.38232422 C229.65360543 106.57324007 233.3977663 106.7729587 237.1418457 106.97509766 C238.75044702 107.06076566 240.3591709 107.14416809 241.96801758 107.22509766 C283.13395247 109.30327823 283.13395247 109.30327823 297.15234375 124.54296875 C306.90234375 136.23504192 306.90234375 136.23504192 306.90234375 140.23046875 C311.41106878 141.73337709 315.74582865 142.51094716 320.46484375 143.10546875 C343.58451278 146.23908451 343.58451278 146.23908451 350.28125 153.98046875 C361.76107112 171.06671413 366.91941879 187.85697623 363.3203125 208.58203125 C358.87400766 222.34730377 347.68342805 233.03824267 337.88720703 243.16894531 C334.62883614 246.55316226 331.42338881 249.98659083 328.21484375 253.41796875 C327.59536865 254.07893555 326.97589355 254.73990234 326.33764648 255.42089844 C322.32699527 259.70104424 318.32534246 263.98938749 314.33984375 268.29296875 C313.64338745 269.04259888 313.64338745 269.04259888 312.93286133 269.80737305 C311.57944901 271.27264979 310.24090933 272.75161682 308.90234375 274.23046875 C308.40394485 274.71966293 307.90554596 275.20885712 307.39204407 275.71287537 C302.83907576 280.43745843 301.77509967 284.43866142 301.07421875 290.85546875 C300.89430389 292.21406006 300.89430389 292.21406006 300.71075439 293.60009766 C300.33449366 296.47446469 299.99217129 299.35158888 299.65234375 302.23046875 C299.29143471 305.10809108 298.92349238 307.98468378 298.55108643 310.86083984 C298.32248262 312.64398921 298.10162015 314.42815428 297.88983154 316.21337891 C297.29099145 321.08082794 296.33693285 325.54257448 294.90234375 330.23046875 C294.55046365 332.49553402 294.23795257 334.76706193 293.96484375 337.04296875 C292.85714198 345.20361536 290.60450085 352.57427805 287.65625 360.23046875 C285.9149199 364.84995585 284.34425974 369.52562619 283.10546875 374.3046875 C278.69062651 389.83885424 270.8621516 409.97478559 256.90234375 419.23046875 C253.66370367 420.92609183 250.38012808 422.11641527 246.90234375 423.23046875 C245.87367188 423.56820313 244.845 423.9059375 243.78515625 424.25390625 C238.05744585 426.01322607 232.44271898 427.35380108 226.51660156 428.16821289 C206.46271255 430.96465031 184.80176398 440.03904007 171.90234375 456.23046875 C164.60958798 467.32654003 163.41026224 478.19330342 162.33984375 491.16796875 C161.00500374 506.94424011 159.08953461 521.01128124 149.46484375 534.16796875 C148.6965625 535.22242188 147.92828125 536.276875 147.13671875 537.36328125 C144.70781606 540.48008995 142.19773902 543.47133988 139.52734375 546.3828125 C137.25906901 548.9618845 135.31093156 551.74311694 133.359375 554.56640625 C131.63902377 556.53120417 130.37139789 557.37719269 127.90234375 558.23046875 C126.29228601 558.07404773 124.68700822 557.86202115 123.08984375 557.60546875 C120.42006277 557.44185011 120.42006277 557.44185011 117.90234375 558.23046875 C114.66400541 561.75909639 112.87804641 565.90162966 110.90234375 570.23046875 C110.29063937 571.49358578 109.67600684 572.75528855 109.05859375 574.015625 C106.37643336 579.56205036 103.88954833 585.14990464 101.71484375 590.91796875 C100.3143869 594.45441651 99.23479832 597.13578302 95.90234375 599.23046875 C92.46484375 599.79296875 92.46484375 599.79296875 88.90234375 599.23046875 C84.53900259 596.0377801 82.22253974 591.60038226 79.53515625 587.015625 C70.86141712 572.22046711 59.82179357 558.12255251 44.90234375 549.23046875 C43.80535156 548.5446875 42.70835937 547.85890625 41.578125 547.15234375 C37.48500898 544.59628579 33.37561488 542.07082599 29.18359375 539.6796875 C24.91908525 536.97055625 21.81611759 532.88306559 19.90234375 528.23046875 C18.95177955 521.1122903 19.60990021 515.06587172 23.90234375 509.23046875 C32.69192787 498.74496902 44.53115385 492.77390892 56.30078125 486.24609375 C56.92025635 485.89925537 57.53973145 485.55241699 58.17797852 485.19506836 C59.68299668 484.35317019 61.19267637 483.51961605 62.703125 482.6875 C66.35541794 480.26777484 68.24654128 477.24782555 69.90234375 473.23046875 C70.95230524 467.43757778 70.38345852 463.21750467 67.04296875 458.27734375 C65.50656428 455.52023436 64.76664109 452.69986894 63.90234375 449.66796875 C62.17993741 443.83055272 60.83008766 439.29226023 55.68359375 435.66796875 C52.55716198 434.0520602 49.78891475 433.52252457 46.33984375 432.85546875 C40.0370745 431.15345511 36.48107066 428.65310415 32.08984375 423.85546875 C31.5805835 423.30197754 31.07132324 422.74848633 30.54663086 422.17822266 C27.56948993 418.68544154 25.63005844 415.8902606 25.90234375 411.23046875 C27.71608335 408.9577933 29.26955181 407.3755094 31.46484375 405.54296875 C32.34861694 404.7686853 32.34861694 404.7686853 33.25024414 403.97875977 C39.02332452 398.97928894 45.03232572 394.26885926 51.09228516 389.62451172 C54.25807991 387.18632881 57.39018292 384.70530799 60.52734375 382.23046875 C62.64859991 380.5588635 64.77381785 378.89285309 66.90234375 377.23046875 C68.00449219 376.32361328 68.00449219 376.32361328 69.12890625 375.3984375 C70.90234375 374.23046875 70.90234375 374.23046875 73.65234375 374.54296875 C74.76609375 374.88328125 74.76609375 374.88328125 75.90234375 375.23046875 C76.28515625 377.41015625 76.28515625 377.41015625 75.90234375 380.23046875 C73.88976745 382.19410703 72.03966718 383.73218113 69.77734375 385.35546875 C68.48412858 386.32649482 67.19116675 387.29785837 65.8984375 388.26953125 C65.23312012 388.76098633 64.56780273 389.25244141 63.88232422 389.75878906 C60.82664544 392.03001368 57.83193951 394.3764556 54.83984375 396.73046875 C54.27104492 397.17575928 53.70224609 397.6210498 53.11621094 398.07983398 C46.90639504 402.96562716 40.89583204 408.08323711 34.90234375 413.23046875 C35.32386719 413.70097656 35.74539063 414.17148437 36.1796875 414.65625 C36.72753906 415.27886719 37.27539062 415.90148437 37.83984375 416.54296875 C38.38511719 417.15785156 38.93039062 417.77273438 39.4921875 418.40625 C40.90234375 420.23046875 40.90234375 420.23046875 41.90234375 423.23046875 C42.5571875 423.08609375 43.21203125 422.94171875 43.88671875 422.79296875 C51.9475806 421.15347142 60.28668124 419.77738981 68.27734375 422.29296875 C75.18860491 427.3941377 78.13980736 433.25314446 80.90234375 441.23046875 C81.42682905 442.59174651 81.95300309 443.9523743 82.48046875 445.3125 C86.94113131 457.18941989 89.90922371 468.94567131 84.83984375 481.23046875 C79.73546679 490.72830666 73.06280004 495.82391078 63.90234375 501.23046875 C61.69280875 502.60353693 59.48449751 503.9785761 57.27734375 505.35546875 C53.5198968 507.6742737 49.75030924 509.86962968 45.83984375 511.91796875 C42.31151169 513.86016988 39.98089959 515.67960252 37.90234375 519.23046875 C37.52793904 521.22318856 37.18947444 523.22331478 36.90234375 525.23046875 C38.06636719 525.81441406 38.06636719 525.81441406 39.25390625 526.41015625 C59.66862857 536.98293607 77.36258594 551.77222388 89.90234375 571.23046875 C89.90234375 571.89046875 89.90234375 572.55046875 89.90234375 573.23046875 C90.56234375 573.23046875 91.22234375 573.23046875 91.90234375 573.23046875 C92.08796875 572.32296875 92.27359375 571.41546875 92.46484375 570.48046875 C93.8348216 565.6612559 96.46337715 561.62018783 99.0390625 557.359375 C100.78740732 554.4234752 102.38564641 551.44719426 103.96484375 548.41796875 C109.18680818 538.91096227 109.18680818 538.91096227 112.90234375 536.23046875 C115.96709353 535.42864468 117.65207265 535.70623148 120.90234375 536.23046875 C123.40234375 537.73046875 123.40234375 537.73046875 124.90234375 539.23046875 C125.14597656 538.67101562 125.38960938 538.1115625 125.640625 537.53515625 C127.14619215 534.78504907 129.01458005 532.70576739 131.08984375 530.35546875 C143.4036236 515.24580651 144.85385034 500.53866687 146.34375 481.7265625 C147.78051654 464.10735373 153.33520175 450.20886533 166.203125 437.59375 C167.90234375 436.23046875 167.90234375 436.23046875 169.90234375 436.23046875 C169.90234375 435.57046875 169.90234375 434.91046875 169.90234375 434.23046875 C172.10353036 432.66074568 174.29454272 431.21234072 176.58984375 429.79296875 C177.21568359 429.39787109 177.84152344 429.00277344 178.48632812 428.59570312 C179.72286991 427.81752342 180.96292785 427.04490124 182.20654297 426.27807617 C183.61091941 425.41050069 185.00254931 424.52233016 186.390625 423.62890625 C189.6064525 421.83844552 192.955163 420.55413244 196.40234375 419.29296875 C197.10576904 419.03281982 197.80919434 418.7726709 198.53393555 418.50463867 C204.91953114 416.17125996 211.37110701 414.11840437 217.90234375 412.23046875 C218.78921875 411.96492188 219.67609375 411.699375 220.58984375 411.42578125 C224.67869417 410.24536907 228.73804016 409.23379294 232.93359375 408.51953125 C233.64088623 408.39779541 234.34817871 408.27605957 235.0769043 408.15063477 C236.46414908 407.91855602 237.85365807 407.69949309 239.24536133 407.49584961 C245.51316808 406.45864054 250.17603502 403.78230823 253.96484375 398.66796875 C262.42782547 386.65316569 266.64662743 371.1871984 271.16333008 357.31713867 C271.90234375 355.23046875 271.90234375 355.23046875 273.4375 352.0078125 C275.82597157 346.58596649 276.4076362 340.59864945 277.33984375 334.79296875 C277.55229736 333.51123779 277.76475098 332.22950684 277.98364258 330.90893555 C278.41889432 328.28034046 278.85078184 325.65118609 279.27929688 323.02148438 C279.84960541 319.55136253 280.44051069 316.08575605 281.04296875 312.62109375 C281.39253342 310.59515661 281.74151145 308.56911814 282.08984375 306.54296875 C282.25822754 305.56763184 282.42661133 304.59229492 282.60009766 303.58740234 C283.48464003 298.30076054 284.12576596 293.0708964 284.52880859 287.72705078 C285.80384428 271.90121415 294.7903841 263.91133868 305.74609375 253.34375 C309.13345086 250.05404502 312.25634033 246.61376516 315.33007812 243.03198242 C317.41089606 240.64776572 319.63571413 238.43745022 321.90234375 236.23046875 C326.11615429 232.05484985 330.10438063 227.78630207 333.90234375 223.23046875 C334.92521484 222.00650391 334.92521484 222.00650391 335.96875 220.7578125 C346.1937605 208.27313117 347.76836859 199.65714431 346.27001953 183.76904297 C345.12803384 175.884337 341.05218872 169.32630266 334.80859375 164.4140625 C329.13183832 160.88935574 324.63482594 159.73340399 318.08984375 159.23046875 C301.50701481 157.56235381 301.50701481 157.56235381 295.27734375 150.10546875 C293.80530793 148.15741431 292.34671964 146.19911901 290.90234375 144.23046875 C289.55101972 142.54069155 288.19712543 140.85296432 286.83984375 139.16796875 C283.90234375 135.484437 283.90234375 135.484437 283.90234375 133.23046875 C279.95921979 131.62042191 275.98490913 130.13770615 271.96484375 128.73046875 C270.78019531 128.30765625 269.59554688 127.88484375 268.375 127.44921875 C256.31197579 123.81871105 243.65840341 123.88287812 231.18237305 123.77416992 C229.08733017 123.75251266 226.99317199 123.71316925 224.8984375 123.671875 C223.67310303 123.65842041 222.44776855 123.64496582 221.18530273 123.63110352 C216.57777095 123.06882497 213.99961223 121.43060615 210.90234375 118.04296875 C209.29760938 115.78631105 207.8805731 113.54074879 206.46484375 111.16796875 C203.34373701 106.13055939 199.9630116 102.98655764 194.046875 101.54296875 C181.67125419 99.7395996 171.73085864 102.50049118 160.74902344 107.84204102 C156.30850441 109.92264434 152.9101279 110.70620824 147.90234375 110.23046875 C145.79875994 108.68784062 145.06180216 107.54938558 143.90234375 105.23046875 C143.71484375 101.73046875 143.71484375 101.73046875 143.90234375 98.23046875 C144.56234375 97.57046875 145.22234375 96.91046875 145.90234375 96.23046875 C146.01047334 94.18805011 146.01047334 94.18805011 144.90234375 92.23046875 C142.41650123 90.70684273 142.41650123 90.70684273 139.33984375 89.60546875 C138.25058594 89.18007812 137.16132813 88.7546875 136.0390625 88.31640625 C133.56264262 87.45906537 131.20793745 86.77117321 128.65234375 86.23046875 C122.90396915 84.69756886 118.23279252 82.2261419 114.90234375 77.23046875 C114.24352022 71.19125306 114.24352022 71.19125306 116.40234375 68.04296875 C119.17124946 66.03551211 121.97339448 64.63130871 125.09765625 63.2578125 C127.23259601 62.22115365 127.23259601 62.22115365 128.90234375 59.23046875 C129.57143524 53.64316176 129.57143524 53.64316176 127.2265625 48.76953125 C124.75675808 46.07142558 122.18041616 43.78384447 119.33984375 41.48046875 C118.38980469 40.701875 117.43976563 39.92328125 116.4609375 39.12109375 C113.98147791 37.08492259 113.98147791 37.08492259 110.90234375 36.23046875 C110.67546875 36.95234375 110.44859375 37.67421875 110.21484375 38.41796875 C108.62299407 41.82907521 106.65308847 43.6672748 103.90234375 46.23046875 C103.45890625 46.72804687 103.01546875 47.225625 102.55859375 47.73828125 C98.11224049 52.65397179 93.48565867 55.85441765 86.71826172 56.40966797 C79.40805588 56.7031274 72.06752728 56.83536876 64.90234375 55.23046875 C53.02316055 54.19228803 44.3488291 58.37579491 34.15771484 63.88037109 C24.6180372 69.03082164 16.25955908 73.51192753 5.2265625 70.5 C0.02468717 68.61191192 -3.45627344 66.49608861 -7.09765625 62.23046875 C-7.96390625 61.48796875 -8.83015625 60.74546875 -9.72265625 59.98046875 C-16.16718725 52.51838022 -15.90757407 42.78139709 -15.33544922 33.36962891 C-14.74960092 28.09940017 -13.01620396 23.1553122 -11.09765625 18.23046875 C-11.42765625 17.90046875 -11.75765625 17.57046875 -12.09765625 17.23046875 C-12.95746094 17.83375 -13.81726563 18.43703125 -14.703125 19.05859375 C-28.49684215 28.48118713 -41.4338378 31.47673208 -58.09765625 31.23046875 C-56.97741802 35.01448062 -56.97741802 35.01448062 -54.0390625 37.453125 C-53.25402344 37.73027344 -52.46898437 38.00742188 -51.66015625 38.29296875 C-48.98849634 39.3771206 -47.18063124 40.15969597 -44.97265625 42.04296875 C-43.62228366 45.41890023 -44.26269369 47.72805943 -45.09765625 51.23046875 C-53.27790718 61.37115912 -67.11280345 71.291296 -80.09765625 73.23046875 C-91.60581629 74.14278042 -99.18688779 72.96885841 -108.140625 65.73046875 C-112.48644433 62.39954136 -115.34795331 60.83467051 -120.91015625 60.98046875 C-122.47443359 61.01914063 -122.47443359 61.01914063 -124.0703125 61.05859375 C-127.79156178 61.26986468 -131.41430231 61.66379891 -135.09765625 62.23046875 C-135.05640625 63.13796875 -135.01515625 64.04546875 -134.97265625 64.98046875 C-135.09297181 68.10867335 -135.48912705 69.61660881 -137.09765625 72.23046875 C-137.75765625 72.23046875 -138.41765625 72.23046875 -139.09765625 72.23046875 C-138.7622517 83.40747064 -138.7622517 83.40747064 -137.03515625 94.41796875 C-134.11258629 107.61381494 -135.77122005 124.76573485 -141.09765625 137.23046875 C-141.57868709 139.52872719 -141.9679905 141.82638225 -142.33984375 144.14453125 C-143.36579614 146.96854453 -144.51911 147.70507484 -147.09765625 149.23046875 C-150.03027344 149.57104492 -150.03027344 149.57104492 -153.39453125 149.5234375 C-154.59980469 149.51376953 -155.80507812 149.50410156 -157.046875 149.49414062 C-158.30113281 149.46900391 -159.55539063 149.44386719 -160.84765625 149.41796875 C-162.11738281 149.40443359 -163.38710937 149.39089844 -164.6953125 149.37695312 C-167.82985469 149.34160115 -170.9635417 149.29225123 -174.09765625 149.23046875 C-174.42765625 148.24046875 -174.75765625 147.25046875 -175.09765625 146.23046875 C-176.41765625 146.23046875 -177.73765625 146.23046875 -179.09765625 146.23046875 C-178.85015625 146.97296875 -178.60265625 147.71546875 -178.34765625 148.48046875 C-178.26515625 149.38796875 -178.18265625 150.29546875 -178.09765625 151.23046875 C-178.71640625 151.78734375 -179.33515625 152.34421875 -179.97265625 152.91796875 C-182.4850917 155.65208968 -182.36863954 156.51193076 -182.53515625 160.10546875 C-182.93014996 166.50060495 -185.48299544 168.85350437 -190.16015625 173.10546875 C-192.48785818 175.65843215 -193.74100054 178.30060295 -195.16796875 181.42578125 C-196.09765625 183.23046875 -196.09765625 183.23046875 -198.09765625 185.23046875 C-197.33838667 192.00765275 -191.00650691 197.84474651 -185.94140625 201.91015625 C-180.37303197 205.89767851 -175.88333819 207.6866653 -168.98046875 207.56640625 C-166.8589766 207.37306275 -166.8589766 207.37306275 -165.09765625 205.23046875 C-160.93230282 204.68032773 -158.88094557 204.65513234 -155.44921875 207.17578125 C-152.31151771 211.25166532 -152.11402368 214.52278768 -151.78515625 219.54296875 C-151.71232422 220.37892578 -151.63949219 221.21488281 -151.56445312 222.07617188 C-151.38875524 224.12598058 -151.2404479 226.17810523 -151.09765625 228.23046875 C-135.59272284 228.62362079 -124.01648064 221.99588879 -111.37890625 213.640625 C-105.02372566 209.71216576 -97.96371866 209.33236998 -90.76953125 210.66015625 C-84.82298341 212.29849086 -80.52765577 215.0497403 -77.09765625 220.23046875 C-73.52427492 228.49391307 -72.20218436 237.35064405 -71.09765625 246.23046875 C-69.40927061 244.85655639 -67.72199724 243.48127714 -66.03515625 242.10546875 C-64.52888672 240.88150391 -64.52888672 240.88150391 -62.9921875 239.6328125 C-60.6656692 237.7018965 -58.44088994 235.71897418 -56.22265625 233.66796875 C-53.09765625 231.23046875 -53.09765625 231.23046875 -50.47265625 230.60546875 C-43.65928515 232.39846114 -39.33376663 239.40255098 -35.9453125 245.203125 C-34.43115957 248.82453224 -34.56702845 252.38514004 -35.09765625 256.23046875 C-37.29949044 260.53840521 -40.67412746 262.68279393 -45.0390625 264.515625 C-51.88938567 266.11665838 -59.11178879 265.50176457 -66.09765625 265.23046875 C-66.06937744 266.14735474 -66.06937744 266.14735474 -66.04052734 267.08276367 C-66.02586426 267.88818604 -66.01120117 268.6936084 -65.99609375 269.5234375 C-65.96781494 270.71876099 -65.96781494 270.71876099 -65.93896484 271.93823242 C-66.28033973 276.86926138 -69.32863572 279.54883691 -72.84765625 282.66796875 C-77.02822402 284.6778571 -79.71113593 284.49929694 -84.09765625 283.23046875 C-87.90637345 281.45306739 -89.62652055 279.52531635 -92.09765625 276.23046875 C-94.68208948 274.49556629 -94.68208948 274.49556629 -97.09765625 273.23046875 C-96.79683326 268.94952626 -95.28049109 267.04298846 -92.09960938 264.23632812 C-91.32520508 263.58374023 -91.32520508 263.58374023 -90.53515625 262.91796875 C-89.75495117 262.23637695 -89.75495117 262.23637695 -88.95898438 261.54101562 C-87.68088559 260.42707632 -86.3904497 259.32731987 -85.09765625 258.23046875 C-85.38506567 256.85457258 -85.67783367 255.47979553 -85.97265625 254.10546875 C-86.13507813 253.33976563 -86.2975 252.5740625 -86.46484375 251.78515625 C-87.07032275 249.16086718 -87.07032275 249.16086718 -88.09765625 246.41796875 C-89.24453651 242.76228792 -89.77472145 239.14455658 -90.22265625 235.35546875 C-90.30902344 234.66710937 -90.39539063 233.97875 -90.484375 233.26953125 C-90.69425191 231.590516 -90.89672712 229.91057827 -91.09765625 228.23046875 C-95.15060677 226.87948524 -98.89633019 226.30322952 -102.95703125 228.01367188 C-104.89066646 229.10032611 -106.7446007 230.26165489 -108.59765625 231.48046875 C-109.85764118 232.27802622 -111.11805613 233.07490475 -112.37890625 233.87109375 C-113.30485596 234.46120239 -113.30485596 234.46120239 -114.24951172 235.06323242 C-119.00646503 238.06759091 -123.43922789 240.59209187 -128.97265625 241.91796875 C-132.32770597 242.51952127 -132.32770597 242.51952127 -135.09765625 244.23046875 C-138.84002627 244.51152977 -142.59599404 244.46232286 -146.34765625 244.48046875 C-147.39824219 244.50109375 -148.44882813 244.52171875 -149.53125 244.54296875 C-151.05685547 244.55070312 -151.05685547 244.55070312 -152.61328125 244.55859375 C-153.54430664 244.56793945 -154.47533203 244.57728516 -155.43457031 244.58691406 C-159.56594668 244.0339429 -162.19365277 242.13447223 -165.09765625 239.23046875 C-165.71178688 237.27257523 -166.24378635 235.28825998 -166.72265625 233.29296875 C-166.98304688 232.23207031 -167.2434375 231.17117188 -167.51171875 230.078125 C-168.09765625 227.23046875 -168.09765625 227.23046875 -168.09765625 224.23046875 C-168.76410156 224.28847656 -169.43054688 224.34648437 -170.1171875 224.40625 C-182.86477684 225.03025787 -192.52480755 218.56412403 -202.03125 210.61328125 C-210.05841108 203.14033396 -215.8006197 193.70438035 -216.53515625 182.66796875 C-216.47083553 179.24727605 -215.88440745 177.38961403 -213.72265625 174.73046875 C-211.09765625 172.23046875 -211.09765625 172.23046875 -209.09765625 171.23046875 C-208.68515625 170.15796875 -208.27265625 169.08546875 -207.84765625 167.98046875 C-206.5782289 164.76458614 -205.96660012 164.12883338 -203.03515625 161.85546875 C-199.51726794 158.71182388 -199.27467721 156.96898934 -198.50390625 152.5 C-197.43086386 146.50540745 -195.02965449 142.26489906 -190.2734375 138.58203125 C-180.15501313 132.29661862 -168.61936255 132.47150863 -157.09765625 132.23046875 C-154.00867517 122.34572929 -153.91524445 112.84657707 -153.91015625 102.54296875 C-153.89178711 100.61420898 -153.89178711 100.61420898 -153.87304688 98.64648438 C-153.86182026 91.24066145 -154.35675909 84.22758789 -155.69116211 76.9387207 C-156.440726 71.94477943 -155.94326631 68.49888384 -153.09765625 64.23046875 C-153.27985971 60.90308653 -153.74120741 57.65930916 -154.19921875 54.359375 C-154.09765625 51.23046875 -154.09765625 51.23046875 -152.43554688 49.09594727 C-149.66904422 46.88846536 -148.08519669 46.58793914 -144.58984375 46.25390625 C-143.51992187 46.14046875 -142.45 46.02703125 -141.34765625 45.91015625 C-140.23390625 45.80960938 -139.12015625 45.7090625 -137.97265625 45.60546875 C-124.8533139 44.37997044 -124.8533139 44.37997044 -112.09765625 41.23046875 C-107.81109406 40.75418406 -105.85038508 40.66592213 -102.34765625 43.29296875 C-99.84276183 46.56324757 -98.60845902 49.41749032 -97.09765625 53.23046875 C-94.13799746 56.19012754 -91.05232023 56.3999547 -86.97265625 56.54296875 C-80.41679042 56.46711576 -74.44349427 54.24118705 -69.47265625 49.98046875 C-69.01890625 49.40296875 -68.56515625 48.82546875 -68.09765625 48.23046875 C-68.84015625 47.50859375 -69.58265625 46.78671875 -70.34765625 46.04296875 C-73.72974207 42.03210078 -74.72228491 37.41115797 -76.12109375 32.44140625 C-77.37661716 28.31324529 -78.98272534 23.34539966 -82.09765625 20.23046875 C-82.38116301 17.04101775 -82.38171597 14.84871638 -81.03515625 11.91796875 C-78.03901362 9.30842517 -76.06392248 9.23046875 -72.09765625 9.23046875 C-69.46355175 10.08905344 -66.96986967 11.13385422 -64.4296875 12.23828125 C-56.02125085 15.81574006 -45.14241671 15.23639886 -36.6015625 12.34375 C-31.03330021 9.86800155 -25.88621232 6.3975443 -21.08203125 2.6640625 C-14.99033003 -1.82792727 -7.16311968 -2.62781113 0 0 Z " fill="#060606" transform="translate(300.09765625,57.76953125)"/>
<path d="M0 0 C5.45936722 2.10930097 8.83310983 6.46533648 11.6875 11.4375 C13.35074098 17.11208688 13.56885365 21.77832928 11.5625 27.375 C8.78469831 31.4938094 5.32314677 34.17323901 0.75 36.0625 C-6.22488247 36.81999781 -12.07170288 36.43248025 -18.25 33.0625 C-18.19779297 34.04089844 -18.19779297 34.04089844 -18.14453125 35.0390625 C-17.87956563 43.59366664 -19.82228996 47.72962743 -25.6875 54 C-27.99609375 56.40234375 -27.99609375 56.40234375 -30.25 58.0625 C-32.53515625 57.81640625 -32.53515625 57.81640625 -34.25 57.0625 C-35.0625 54.875 -35.0625 54.875 -35.25 52.0625 C-32.9375 49.25 -32.9375 49.25 -30.25 47.0625 C-29.59 47.0625 -28.93 47.0625 -28.25 47.0625 C-25.80935413 41.41850642 -26.05710901 36.08498522 -26.25 30.0625 C-27.14203125 30.74957031 -28.0340625 31.43664062 -28.953125 32.14453125 C-30.13540668 33.05470048 -31.3176989 33.964856 -32.5 34.875 C-33.08652344 35.32681641 -33.67304688 35.77863281 -34.27734375 36.24414062 C-35.42036931 37.12388502 -36.56517985 38.00131597 -37.71191406 38.8762207 C-38.99228267 39.8637304 -40.24932598 40.88139212 -41.5 41.90625 C-43.25 43.0625 -43.25 43.0625 -46 42.75 C-46.7425 42.523125 -47.485 42.29625 -48.25 42.0625 C-48.66526874 37.5724366 -48.66526874 37.5724366 -46.82885742 35.31738281 C-46.17763916 34.80530273 -45.5264209 34.29322266 -44.85546875 33.765625 C-44.14712891 33.19972656 -43.43878906 32.63382812 -42.70898438 32.05078125 C-41.95939453 31.47714844 -41.20980469 30.90351563 -40.4375 30.3125 C-39.69951172 29.72339844 -38.96152344 29.13429688 -38.20117188 28.52734375 C-32.736114 24.224538 -32.736114 24.224538 -29.25 23.0625 C-28.92 22.0725 -28.59 21.0825 -28.25 20.0625 C-26.16796875 18.37109375 -26.16796875 18.37109375 -23.4375 16.5 C-17.96444519 12.64382152 -12.87674431 8.49523267 -7.78125 4.1640625 C-2.86153846 0.07948718 -2.86153846 0.07948718 0 0 Z " fill="#101010" transform="translate(276.25,317.9375)"/>
<path d="M0 0 C0.78246094 -0.02578125 1.56492187 -0.0515625 2.37109375 -0.078125 C4.5625 0.25 4.5625 0.25 6.34765625 1.265625 C8.30770978 4.46725585 8.14293407 7.66269967 7.5625 11.25 C5.98046875 14.63671875 5.98046875 14.63671875 3.75 17.9375 C3.34837646 18.53272461 2.94675293 19.12794922 2.53295898 19.74121094 C-5.65535981 31.61215674 -17.31718482 47.91901822 -30.4375 54.25 C-32.6640625 53.89453125 -32.6640625 53.89453125 -34.4375 53.25 C-34.7675 51.93 -35.0975 50.61 -35.4375 49.25 C-31.4775 45.62 -27.5175 41.99 -23.4375 38.25 C-25.24177195 34.64145611 -26.88474796 32.43688934 -29.5625 29.5 C-30.28695313 28.70078125 -31.01140625 27.9015625 -31.7578125 27.078125 C-32.31210937 26.47484375 -32.86640625 25.8715625 -33.4375 25.25 C-37.97082201 26.88903177 -41.40436526 29.25667499 -45.25390625 32.10546875 C-47.4375 33.25 -47.4375 33.25 -49.71484375 32.92578125 C-50.56755859 32.59126953 -50.56755859 32.59126953 -51.4375 32.25 C-51.73046875 29.98828125 -51.73046875 29.98828125 -51.4375 27.25 C-49.48828125 25.29296875 -49.48828125 25.29296875 -46.75 23.4375 C-45.74582031 22.75300781 -44.74164063 22.06851562 -43.70703125 21.36328125 C-32.39388205 14.05095901 -21.07296912 6.80456989 -8.43359375 2.01171875 C-3.33401315 0.06569484 -3.33401315 0.06569484 0 0 Z " fill="#0D0D0D" transform="translate(304.4375,356.75)"/>
<path d="M0 0 C3.50201373 0.18239655 4.86972285 0.88234345 7.5 3.2578125 C10.02456601 6.15317415 12.54032319 9.04919296 15 12 C15.59167969 12.70769531 16.18335938 13.41539062 16.79296875 14.14453125 C18.1875 15.9375 18.1875 15.9375 20 19 C19.61328125 21.19140625 19.61328125 21.19140625 19 23 C17.76958984 23.34780518 16.53917969 23.69561035 15.27148438 24.05395508 C10.67839009 25.35327546 6.08657356 26.65706281 1.49511719 27.9621582 C-0.48696227 28.52488911 -2.4693798 29.08643076 -4.45214844 29.64672852 C-7.31276111 30.45531878 -10.17210451 31.26827037 -13.03125 32.08203125 C-13.90865845 32.32903275 -14.78606689 32.57603424 -15.69006348 32.83052063 C-20.90556216 34.32032824 -25.93327798 36.06596974 -31 38 C-32.65672637 38.37966646 -34.32070245 38.73760976 -36 39 C-35.00100775 40.29244623 -34.00072069 41.58389161 -33 42.875 C-32.3709375 43.69097656 -31.741875 44.50695312 -31.09375 45.34765625 C-29.66861163 47.15300877 -28.20846006 48.93114373 -26.71875 50.68359375 C-25.9865625 51.55113281 -25.254375 52.41867187 -24.5 53.3125 C-23.46359375 54.51326172 -23.46359375 54.51326172 -22.40625 55.73828125 C-21 58 -21 58 -21.28125 60.29296875 C-21.5184375 60.85628906 -21.755625 61.41960937 -22 62 C-24.475 62.495 -24.475 62.495 -27 63 C-30.49694534 58.95519989 -33.9794199 54.89879154 -37.44335938 50.82568359 C-38.81451063 49.21754854 -40.19555802 47.61786247 -41.578125 46.01953125 C-42.29484375 45.16746094 -43.0115625 44.31539063 -43.75 43.4375 C-44.38421875 42.69371094 -45.0184375 41.94992187 -45.671875 41.18359375 C-47.25010866 38.58879194 -47.27280037 36.98506561 -47 34 C-43.47774946 32.70232875 -40.03144939 31.77989216 -36.34960938 31.10375977 C-31.37111779 30.12636039 -26.60661928 28.76872351 -21.78125 27.21484375 C-20.95669312 26.95369278 -20.13213623 26.69254181 -19.28259277 26.42347717 C-17.56097919 25.87716294 -15.84015702 25.32834871 -14.12011719 24.77709961 C-11.48023983 23.93116798 -8.83802677 23.09288172 -6.1953125 22.25585938 C-4.51548635 21.72179008 -2.83579382 21.18730028 -1.15625 20.65234375 C-0.3667395 20.40129379 0.422771 20.15024384 1.23620605 19.8915863 C5.19629717 18.64470479 5.19629717 18.64470479 9 17 C8.278125 16.26394531 7.55625 15.52789062 6.8125 14.76953125 C5.87434953 13.78447325 4.93688514 12.79876152 4 11.8125 C3.52304687 11.32974609 3.04609375 10.84699219 2.5546875 10.34960938 C0.31930656 7.97052537 -0.93580176 6.4794806 -1.375 3.19921875 C-1 1 -1 1 0 0 Z " fill="#010101" transform="translate(327,380)"/>
<path d="M0 0 C0.78246094 -0.02578125 1.56492187 -0.0515625 2.37109375 -0.078125 C4.5625 0.25 4.5625 0.25 6.34765625 1.265625 C8.3153307 4.47970417 8.18544222 7.65407427 7.5625 11.25 C6.45529938 13.90454767 4.96690841 16.15582257 3.3125 18.5 C2.91675781 19.098125 2.52101563 19.69625 2.11328125 20.3125 C-0.12523365 23.62990569 -2.50298526 26.53086249 -5.4375 29.25 C-6.0975 27.93 -6.7575 26.61 -7.4375 25.25 C-8.0975 25.91 -8.7575 26.57 -9.4375 27.25 C-11.61134564 29.42384564 -13.75020474 30.77198761 -16.4375 32.25 C-17.0975 32.25 -17.7575 32.25 -18.4375 32.25 C-20.04384015 30.51608049 -21.5750287 28.711909 -23.0625 26.875 C-23.87976563 25.87726563 -24.69703125 24.87953125 -25.5390625 23.8515625 C-27.4375 21.25 -27.4375 21.25 -27.4375 19.25 C-23.8075 17.27 -20.1775 15.29 -16.4375 13.25 C-16.4375 12.26 -16.4375 11.27 -16.4375 10.25 C-15.7775 10.25 -15.1175 10.25 -14.4375 10.25 C-14.4375 9.26 -14.4375 8.27 -14.4375 7.25 C-15.0975 6.59 -15.7575 5.93 -16.4375 5.25 C-15.73882812 4.97285156 -15.04015625 4.69570313 -14.3203125 4.41015625 C-13.41023438 4.04792969 -12.50015625 3.68570312 -11.5625 3.3125 C-10.65757812 2.95285156 -9.75265625 2.59320313 -8.8203125 2.22265625 C-3.54644464 0.06988068 -3.54644464 0.06988068 0 0 Z " fill="#131313" transform="translate(304.4375,356.75)"/>
<path d="M0 0 C0.5775 0.226875 1.155 0.45375 1.75 0.6875 C1.75 1.6775 1.75 2.6675 1.75 3.6875 C-0.4375 5.73046875 -0.4375 5.73046875 -3.25 7.875 C-4.6421875 8.94814453 -4.6421875 8.94814453 -6.0625 10.04296875 C-6.784375 10.58566406 -7.50625 11.12835938 -8.25 11.6875 C-4.99704891 14.37733519 -2.26140606 16.31216078 1.75 17.6875 C0.43 19.0075 -0.89 20.3275 -2.25 21.6875 C-2.25 20.6975 -2.25 19.7075 -2.25 18.6875 C-3.9 19.3475 -5.55 20.0075 -7.25 20.6875 C-7.28738281 21.41195313 -7.32476562 22.13640625 -7.36328125 22.8828125 C-8.05121647 32.99950684 -11.02009208 37.76805268 -17.99609375 45.02734375 C-20.25 46.6875 -20.25 46.6875 -22.53515625 46.44140625 C-23.10105469 46.19261719 -23.66695312 45.94382812 -24.25 45.6875 C-25.0625 43.5 -25.0625 43.5 -25.25 40.6875 C-22.9375 37.875 -22.9375 37.875 -20.25 35.6875 C-19.59 35.6875 -18.93 35.6875 -18.25 35.6875 C-15.80935413 30.04350642 -16.05710901 24.70998522 -16.25 18.6875 C-17.14203125 19.37457031 -18.0340625 20.06164062 -18.953125 20.76953125 C-20.13540668 21.67970048 -21.3176989 22.589856 -22.5 23.5 C-23.37978516 24.17772461 -23.37978516 24.17772461 -24.27734375 24.86914062 C-25.42036931 25.74888502 -26.56517985 26.62631597 -27.71191406 27.5012207 C-28.99228267 28.4887304 -30.24932598 29.50639212 -31.5 30.53125 C-33.25 31.6875 -33.25 31.6875 -36 31.375 C-36.7425 31.148125 -37.485 30.92125 -38.25 30.6875 C-38.66526874 26.1974366 -38.66526874 26.1974366 -36.82885742 23.94238281 C-36.17763916 23.43030273 -35.5264209 22.91822266 -34.85546875 22.390625 C-34.14712891 21.82472656 -33.43878906 21.25882812 -32.70898438 20.67578125 C-31.95939453 20.10214844 -31.20980469 19.52851563 -30.4375 18.9375 C-29.69951172 18.34839844 -28.96152344 17.75929688 -28.20117188 17.15234375 C-22.736114 12.849538 -22.736114 12.849538 -19.25 11.6875 C-18.92 10.6975 -18.59 9.7075 -18.25 8.6875 C-14.59867424 5.29137443 -11.16464957 3.4844702 -6.25 2.6875 C-5.2290625 1.883125 -5.2290625 1.883125 -4.1875 1.0625 C-2.25 -0.3125 -2.25 -0.3125 0 0 Z " fill="#0F0F0F" transform="translate(266.25,329.3125)"/>
<path d="M0 0 C3.84768165 0.49877355 5.06921003 2.18171536 7.6171875 5.04296875 C8.41898437 5.91308594 9.22078125 6.78320312 10.046875 7.6796875 C11.7421875 10.35546875 11.7421875 10.35546875 11.5 13.1875 C11.12488281 14.26064453 11.12488281 14.26064453 10.7421875 15.35546875 C9.5046875 15.00484375 8.2671875 14.65421875 6.9921875 14.29296875 C2.22083825 13.79579861 -0.03292222 15.13604021 -3.8203125 17.98046875 C-5.38985017 19.26664558 -6.95816586 20.55469245 -8.50244141 21.87109375 C-10.40921758 23.48349975 -12.34997459 25.04666164 -14.30078125 26.60546875 C-17.08013441 28.82817637 -19.8395439 31.07181206 -22.58203125 33.33984375 C-24.72302862 35.11027339 -26.87213009 36.81980811 -29.08984375 38.49609375 C-31.92111586 40.68612661 -31.92111586 40.68612661 -34.2578125 43.35546875 C-34.3721462 47.1554874 -34.3721462 47.1554874 -33.2578125 50.35546875 C-34.2578125 51.35546875 -34.2578125 51.35546875 -36.51953125 51.7109375 C-40.35858479 51.21257249 -41.54468446 49.53704869 -44.0703125 46.66796875 C-44.86050781 45.79785156 -45.65070313 44.92773438 -46.46484375 44.03125 C-48.41738434 41.11732777 -48.67122507 39.78000568 -48.2578125 36.35546875 C-44.38287594 35.27909748 -42.73328323 35.40979924 -39.2578125 37.35546875 C-38.41863281 36.57236328 -38.41863281 36.57236328 -37.5625 35.7734375 C-32.64761854 31.26154471 -27.63055505 26.9721824 -22.3828125 22.85546875 C-21.7959668 22.39261475 -21.20912109 21.92976074 -20.60449219 21.45288086 C-17.69150176 19.17645936 -14.75232738 16.98206073 -11.6953125 14.90234375 C-11.1369873 14.51369141 -10.57866211 14.12503906 -10.00341797 13.72460938 C-8.4784792 12.67153325 -6.93507052 11.64534744 -5.390625 10.62109375 C-2.86975931 8.42233536 -2.86975931 8.42233536 -3 4.65234375 C-3.08507812 3.564375 -3.17015625 2.47640625 -3.2578125 1.35546875 C-2.2578125 0.35546875 -2.2578125 0.35546875 0 0 Z " fill="#0C0C0C" transform="translate(356.2578125,410.64453125)"/>
<path d="M0 0 C1.11375 0.3403125 1.11375 0.3403125 2.25 0.6875 C2.6328125 2.8671875 2.6328125 2.8671875 2.25 5.6875 C0.2374237 7.65113828 -1.61267657 9.18921238 -3.875 10.8125 C-5.16821517 11.78352607 -6.461177 12.75488962 -7.75390625 13.7265625 C-8.41922363 14.21801758 -9.08454102 14.70947266 -9.77001953 15.21582031 C-12.82569831 17.48704493 -15.82040424 19.83348685 -18.8125 22.1875 C-19.38129883 22.63279053 -19.95009766 23.07808105 -20.53613281 23.53686523 C-26.74594871 28.42265841 -32.75651171 33.54026836 -38.75 38.6875 C-37.1 40.9975 -35.45 43.3075 -33.75 45.6875 C-34.74 46.6775 -35.73 47.6675 -36.75 48.6875 C-37.08 49.6775 -37.41 50.6675 -37.75 51.6875 C-39.44381986 50.04207499 -41.10522341 48.38104355 -42.75 46.6875 C-43.23855469 46.19507813 -43.72710937 45.70265625 -44.23046875 45.1953125 C-47.76250408 41.37636113 -47.76250408 41.37636113 -47.70703125 38.3203125 C-46.40041964 34.72579729 -44.42061832 33.09214237 -41.5625 30.5625 C-41.02931152 30.08876953 -40.49612305 29.61503906 -39.94677734 29.12695312 C-34.34621148 24.21286636 -28.48070985 19.63761864 -22.57617188 15.09765625 C-19.40753619 12.6508595 -16.26844789 10.16651287 -13.125 7.6875 C-11.00371372 6.01593348 -8.87852566 4.34988415 -6.75 2.6875 C-5.64785156 1.78064453 -5.64785156 1.78064453 -4.5234375 0.85546875 C-2.75 -0.3125 -2.75 -0.3125 0 0 Z " fill="#101010" transform="translate(373.75,432.3125)"/>
<path d="M0 0 C3.33944079 3.7442215 4.81658655 6.34927893 5.375 11.375 C4.90483407 15.91993735 3.44437428 17.14368962 0 20 C-0.33 20.33 -0.66 20.66 -1 21 C-8.00073067 21.86124982 -12.88668674 21.24206969 -18.63671875 17.09375 C-19.08660156 16.7328125 -19.53648437 16.371875 -20 16 C-4.51612903 0 -4.51612903 0 0 0 Z " fill="#F2F2F2" transform="translate(277,326)"/>
<path d="M0 0 C4.43658969 2.21829484 6.67773363 4.61349686 9 9 C9.625 12.125 9.625 12.125 9 15 C4.18701878 19.13615574 0.43312215 19.62621088 -5.625 19.5 C-6.37523437 19.51546875 -7.12546875 19.5309375 -7.8984375 19.546875 C-11.60586683 19.52058117 -13.59563727 19.32549322 -16.5234375 16.96875 C-17.01070312 16.3190625 -17.49796875 15.669375 -18 15 C-12.19825584 9.71945272 -6.25677351 4.73325656 0 0 Z " fill="#F5F5F5" transform="translate(249,297)"/>
<path d="M0 0 C0.33 0.99 0.66 1.98 1 3 C-0.3359375 5.3125 -0.3359375 5.3125 -2.375 8 C-3.1071875 8.96550781 -3.839375 9.93101562 -4.59375 10.92578125 C-5.3878125 11.94027344 -6.181875 12.95476562 -7 14 C-7.40734375 14.52384277 -7.8146875 15.04768555 -8.234375 15.58740234 C-13.44537364 22.25987173 -13.44537364 22.25987173 -16 25 C-16.66 25 -17.32 25 -18 25 C-19.60634015 23.26608049 -21.1375287 21.461909 -22.625 19.625 C-23.44226563 18.62726563 -24.25953125 17.62953125 -25.1015625 16.6015625 C-27 14 -27 14 -27 12 C-18.17138525 7.43614896 -9.48995225 3.05608632 0 0 Z " fill="#F1F1F1" transform="translate(304,364)"/>
<path d="M0 0 C2 1 2 1 2 1 Z M-2 2 C-1.01 2.66 -0.02 3.32 1 4 C0.50334865 8.50190418 -1.04947124 10.61181186 -4.125 13.875 C-4.94097656 14.74382812 -5.75695312 15.61265625 -6.59765625 16.5078125 C-7.39042969 17.33023437 -8.18320312 18.15265625 -9 19 C-9.61746094 19.65742188 -10.23492187 20.31484375 -10.87109375 20.9921875 C-19.00578965 29.44625945 -19.00578965 29.44625945 -24 32 C-26.23828125 31.65625 -26.23828125 31.65625 -28 31 C-28.33 29.68 -28.66 28.36 -29 27 C-27.71802734 25.86111328 -27.71802734 25.86111328 -26.41015625 24.69921875 C-25.29399878 23.69561498 -24.17812824 22.69169204 -23.0625 21.6875 C-22.49853516 21.18798828 -21.93457031 20.68847656 -21.35351562 20.17382812 C-17.94080419 17.10128236 -17.94080419 17.10128236 -16 13 C-15.34 12.34 -14.68 11.68 -14 11 C-14 10.34 -14 9.68 -14 9 C-12.9171875 8.8453125 -12.9171875 8.8453125 -11.8125 8.6875 C-7.21743751 7.5642625 -4.62620684 5.93931026 -2 2 Z " fill="#060606" transform="translate(298,379)"/>
<path d="M0 0 C5.64748052 3.47537263 10.49893919 9.84715557 13 16 C13.1953125 18.359375 13.1953125 18.359375 13.125 20.75 C13.10695313 21.54921875 13.08890625 22.3484375 13.0703125 23.171875 C13.04710937 23.77515625 13.02390625 24.3784375 13 25 C12.67 25 12.34 25 12 25 C11.67 22.69 11.34 20.38 11 18 C10.01 18.33 9.02 18.66 8 19 C7.67 20.65 7.34 22.3 7 24 C6.01 24 5.02 24 4 24 C4.33 23.67 4.66 23.34 5 23 C5.45230285 19.11019549 5.12727631 17.23637028 3.25 13.75 C1.05768737 10.68796377 1.05768737 10.68796377 -3 9 C-5.97 11.31 -8.94 13.62 -12 16 C-14 13 -14 13 -14 11 C-15.65 11.66 -17.3 12.32 -19 13 C-17.35698938 11.30398904 -15.69279019 9.64587684 -14 8 C-13.28714844 7.30261719 -12.57429687 6.60523438 -11.83984375 5.88671875 C-10.68162109 4.79810547 -10.68162109 4.79810547 -9.5 3.6875 C-8.40171875 2.64142578 -8.40171875 2.64142578 -7.28125 1.57421875 C-4.57104641 -0.29600735 -3.22748049 -0.44131941 0 0 Z " fill="#131313" transform="translate(252,289)"/>
<path d="M0 0 C3.84768165 0.49877355 5.06921003 2.18171536 7.6171875 5.04296875 C8.41898437 5.91308594 9.22078125 6.78320312 10.046875 7.6796875 C11.7421875 10.35546875 11.7421875 10.35546875 11.5 13.1875 C11.24992187 13.90292969 10.99984375 14.61835938 10.7421875 15.35546875 C9.5046875 15.00484375 8.2671875 14.65421875 6.9921875 14.29296875 C2.68009034 13.75224545 0.42703448 14.88623038 -3.03613281 17.45532227 C-4.59402158 18.69948939 -6.12559531 19.97638308 -7.65625 21.25390625 C-10.2578125 23.35546875 -10.2578125 23.35546875 -13.2578125 24.35546875 C-13.2578125 21.35546875 -13.2578125 18.35546875 -13.2578125 15.35546875 C-11.0703125 13.77734375 -11.0703125 13.77734375 -8.2578125 12.10546875 C-5.49311154 10.36203162 -5.49311154 10.36203162 -3.2578125 8.35546875 C-2.50367897 4.59903451 -2.50367897 4.59903451 -3.2578125 1.35546875 C-2.2578125 0.35546875 -2.2578125 0.35546875 0 0 Z " fill="#101010" transform="translate(356.2578125,410.64453125)"/>
<path d="M0 0 C1.32 0.33 2.64 0.66 4 1 C3.34 1 2.68 1 2 1 C2.99899225 2.29244623 3.99927931 3.58389161 5 4.875 C5.6290625 5.69097656 6.258125 6.50695312 6.90625 7.34765625 C8.33138837 9.15300877 9.79153994 10.93114373 11.28125 12.68359375 C12.0134375 13.55113281 12.745625 14.41867187 13.5 15.3125 C14.1909375 16.11300781 14.881875 16.91351563 15.59375 17.73828125 C17 20 17 20 16.71875 22.29296875 C16.4815625 22.85628906 16.244375 23.41960937 16 24 C14.35 24.33 12.7 24.66 11 25 C9.0822931 22.77172107 7.16580761 20.54241095 5.25 18.3125 C4.71117187 17.68666016 4.17234375 17.06082031 3.6171875 16.41601562 C-5 6.38014482 -5 6.38014482 -5 4 C-3.35 3.34 -1.7 2.68 0 2 C0 1.34 0 0.68 0 0 Z " fill="#141414" transform="translate(289,418)"/>
<path d="M0 0 C2.4898595 3.73478924 2.71846189 7.66261894 2 12 C0.3125 14.5625 0.3125 14.5625 -2 16 C-5.80880762 16.09766173 -6.97597836 15.02188638 -9.8125 12.4375 C-10.534375 11.633125 -11.25625 10.82875 -12 10 C-11.06409496 8.8944811 -10.12620142 7.79064547 -9.1875 6.6875 C-8.66542969 6.07261719 -8.14335937 5.45773437 -7.60546875 4.82421875 C-7.07566406 4.22222656 -6.54585937 3.62023437 -6 3 C-5.50113281 2.42894531 -5.00226563 1.85789062 -4.48828125 1.26953125 C-3 0 -3 0 0 0 Z " fill="#E8E8E8" transform="translate(225,319)"/>
<path d="M0 0 C4.98676616 0.24496395 7.11469858 2.67418554 10.375 6.25 C11.26960938 7.20390625 12.16421875 8.1578125 13.0859375 9.140625 C15 12 15 12 14.7890625 14.859375 C14.52867187 15.56578125 14.26828125 16.2721875 14 17 C11.83203125 17.32421875 11.83203125 17.32421875 9 17 C6.32421875 14.76953125 6.32421875 14.76953125 3.6875 11.8125 C2.80449219 10.84957031 1.92148437 9.88664062 1.01171875 8.89453125 C-1.10621715 5.84717106 -1.58348949 4.60994049 -1 1 C-0.67 0.67 -0.34 0.34 0 0 Z " fill="#101110" transform="translate(327,380)"/>
<path d="M0 0 C0.66 0.33 1.32 0.66 2 1 C1 3 1 3 -2 5 C-1.67 5.66 -1.34 6.32 -1 7 C-0.34 7 0.32 7 1 7 C1 7.66 1 8.32 1 9 C-1.2192209 10.67034942 -3.41823005 12.1908183 -5.75 13.6875 C-6.70132812 14.33041992 -6.70132812 14.33041992 -7.671875 14.98632812 C-12.47311397 18.09212959 -12.47311397 18.09212959 -15.21582031 17.61254883 C-16.09898926 17.30933716 -16.09898926 17.30933716 -17 17 C-17.3203125 14.75390625 -17.3203125 14.75390625 -17 12 C-14.8046875 9.90234375 -14.8046875 9.90234375 -11.875 7.9375 C-10.87597656 7.25558594 -9.87695312 6.57367188 -8.84765625 5.87109375 C-7.43806641 4.94490234 -7.43806641 4.94490234 -6 4 C-4.97712891 3.30583984 -4.97712891 3.30583984 -3.93359375 2.59765625 C-2.63249365 1.7166704 -1.31826357 0.85508988 0 0 Z " fill="#171717" transform="translate(270,372)"/>
<path d="M0 0 C0.66 1.32 1.32 2.64 2 4 C0.68 4.99 -0.64 5.98 -2 7 C-1.01 8.65 -0.02 10.3 1 12 C0.484375 12.598125 -0.03125 13.19625 -0.5625 13.8125 C-1.036875 14.534375 -1.51125 15.25625 -2 16 C-1.67 16.99 -1.34 17.98 -1 19 C-1.99 19 -2.98 19 -4 19 C-4 19.66 -4 20.32 -4 21 C-10.75 20.25 -10.75 20.25 -13 18 C-12.95022039 14.32875403 -12.09528936 13.09920949 -9.53125 10.4296875 C-8.5309375 9.58664062 -7.530625 8.74359375 -6.5 7.875 C-2.33596734 4.56669822 -2.33596734 4.56669822 0 0 Z " fill="#141414" transform="translate(216,313)"/>
<path d="M0 0 C0.99 0.33 1.98 0.66 3 1 C2.79208224 5.35561051 2.54073708 7.42720675 -0.50390625 10.65234375 C-1.51324219 11.40644531 -2.52257812 12.16054688 -3.5625 12.9375 C-4.57441406 13.70964844 -5.58632813 14.48179687 -6.62890625 15.27734375 C-7.41136719 15.84582031 -8.19382812 16.41429687 -9 17 C-10.65 16.01 -12.3 15.02 -14 14 C-11.39122362 11.31449491 -8.79217186 8.78582335 -5.875 6.4375 C-3.46439539 4.39372652 -1.73808203 2.60712305 0 0 Z " fill="#0B0B0B" transform="translate(341,428)"/>
<path d="M0 0 C0 3 0 3 -2.1875 5.26171875 C-3.115625 6.06222656 -4.04375 6.86273438 -5 7.6875 C-6.3921875 8.89986328 -6.3921875 8.89986328 -7.8125 10.13671875 C-8.534375 10.75160156 -9.25625 11.36648438 -10 12 C-9.01 12.33 -8.02 12.66 -7 13 C-7.125 14.75 -7.125 14.75 -8 17 C-11.0625 19.25 -11.0625 19.25 -14 21 C-14.1546875 20.0409375 -14.1546875 20.0409375 -14.3125 19.0625 C-14.539375 18.381875 -14.76625 17.70125 -15 17 C-15.99 16.67 -16.98 16.34 -18 16 C-14.25333462 12.14044075 -10.31478678 8.63380746 -6.1875 5.1875 C-5.59001953 4.68541016 -4.99253906 4.18332031 -4.37695312 3.66601562 C-2.91971152 2.44193268 -1.46010135 1.22067038 0 0 Z M-12 12 C-11 14 -11 14 -11 14 Z " fill="#161616" transform="translate(338,430)"/>
<path d="M0 0 C-0.33 0.66 -0.66 1.32 -1 2 C-0.95875 2.825 -0.9175 3.65 -0.875 4.5 C-0.91625 5.325 -0.9575 6.15 -1 7 C-4 9 -4 9 -6.0625 8.75 C-8 8 -8 8 -10 6 C-10.125 3.375 -10.125 3.375 -10 1 C-3.71428571 -1.42857143 -3.71428571 -1.42857143 0 0 Z " fill="#0C0C0C" transform="translate(290,413)"/>
<path d="M0 0 C1.67004829 0.31595508 3.33637583 0.65179959 5 1 C8.7763932 1.2981424 8.7763932 1.2981424 11 0 C10.1875 1.9375 10.1875 1.9375 9 4 C8.01 4.33 7.02 4.66 6 5 C5.67 6.98 5.34 8.96 5 11 C-0.88752009 6.7070166 -0.88752009 6.7070166 -1.4375 3.25 C-1 1 -1 1 0 0 Z " fill="#141414" transform="translate(309,446)"/>
<path d="M0 0 C1.875 0.875 1.875 0.875 3.875 2.875 C3.5 5.5 3.5 5.5 2.875 7.875 C-0.425 7.545 -3.725 7.215 -7.125 6.875 C-5.91957043 3.2587113 -4.25064012 -0.25003765 0 0 Z " fill="#212121" transform="translate(364.125,418.125)"/>
<path d="M0 0 C0.33 0.99 0.66 1.98 1 3 C0.10796875 3.86882812 -0.7840625 4.73765625 -1.703125 5.6328125 C-2.88568535 6.79660205 -4.067962 7.96067992 -5.25 9.125 C-5.83652344 9.69476563 -6.42304687 10.26453125 -7.02734375 10.8515625 C-10.55480836 14.33939267 -13.40306908 17.77034518 -16 22 C-16.66 21.67 -17.32 21.34 -18 21 C-16.65519624 17.99264159 -15.17216821 15.9414784 -12.8125 13.65234375 C-12.19632813 13.04712891 -11.58015625 12.44191406 -10.9453125 11.81835938 C-10.30335938 11.19767578 -9.66140625 10.57699219 -9 9.9375 C-7.72691422 8.69892558 -6.45599068 7.45812384 -5.1875 6.21484375 C-4.62417969 5.66948975 -4.06085937 5.12413574 -3.48046875 4.56225586 C-1.7856336 2.8622891 -1.7856336 2.8622891 0 0 Z " fill="#202020" transform="translate(629,286)"/>
<path d="M0 0 C2.0625 1.75 2.0625 1.75 4 4 C3.75 6.25 3.75 6.25 3 8 C1.35 8.33 -0.3 8.66 -2 9 C-2.66 8.01 -3.32 7.02 -4 6 C-3.01 6 -2.02 6 -1 6 C-0.67 4.02 -0.34 2.04 0 0 Z " fill="#2A2A2A" transform="translate(302,434)"/>
<path d="M0 0 C0.99 0.33 1.98 0.66 3 1 C3 1.99 3 2.98 3 4 C-1.75 6 -1.75 6 -4 6 C-5.63676257 7.9600281 -5.63676257 7.9600281 -7 10 C-7.99 9.67 -8.98 9.34 -10 9 C-3.73362445 2.55458515 -3.73362445 2.55458515 0 0 Z " fill="#E8E8E8" transform="translate(244,351)"/>
<path d="M0 0 C1.28317658 2.1134673 2.01559731 3.50088598 1.9375 6 C0.60240388 8.84820505 -1.48196904 10.1921829 -4 12 C-4 9.69 -4 7.38 -4 5 C-3.34 5 -2.68 5 -2 5 C-1.34 3.35 -0.68 1.7 0 0 Z " fill="#E7E7E7" transform="translate(214,309)"/>
<path d="M0 0 C1.32 0.66 2.64 1.32 4 2 C3.814375 2.61875 3.62875 3.2375 3.4375 3.875 C2.76313824 6.04160178 2.76313824 6.04160178 4 8 C1.125 7.6875 1.125 7.6875 -2 7 C-2.66 6.01 -3.32 5.02 -4 4 C-2.68 2.68 -1.36 1.36 0 0 Z " fill="#E3E3E3" transform="translate(235,308)"/>
<path d="M0 0 C0.66 0.66 1.32 1.32 2 2 C0.95125002 4.62187494 0.35068687 5.79371361 -2.125 7.25 C-2.74375 7.4975 -3.3625 7.745 -4 8 C-4 7.34 -4 6.68 -4 6 C-4.99 5.67 -5.98 5.34 -7 5 C-4.84365964 2.84365964 -2.62901288 1.52206009 0 0 Z " fill="#0A0A0A" transform="translate(372,435)"/>
<path d="M0 0 C2.375 -0.1875 2.375 -0.1875 5 0 C5.66 0.99 6.32 1.98 7 3 C5.25 4.5625 5.25 4.5625 3 6 C0.75 5.6875 0.75 5.6875 -1 5 C-0.67 3.35 -0.34 1.7 0 0 Z " fill="#202020" transform="translate(354,411)"/>
<path d="M0 0 C2.02045442 0.60183749 4.02111039 1.27306096 6 2 C6.33 2.66 6.66 3.32 7 4 C6.67 4.99 6.34 5.98 6 7 C4.35 7.33 2.7 7.66 1 8 C0.67 5.36 0.34 2.72 0 0 Z " fill="#E4E4E4" transform="translate(311,359)"/>
<path d="M0 0 C1.32 0.33 2.64 0.66 4 1 C4 3.97 4 6.94 4 10 C3.67 10 3.34 10 3 10 C2.67 7.69 2.34 5.38 2 3 C1.01 3.33 0.02 3.66 -1 4 C-1.33 5.65 -1.66 7.3 -2 9 C-2.99 9 -3.98 9 -5 9 C-3.375 2.25 -3.375 2.25 0 0 Z " fill="#1D1D1D" transform="translate(261,304)"/>
<path d="M0 0 C0.66 0.33 1.32 0.66 2 1 C0.52742891 4.88223287 -1.47949708 5.97571082 -5 8 C-5.99 9.485 -5.99 9.485 -7 11 C-7 10.34 -7 9.68 -7 9 C-7.99 8.67 -8.98 8.34 -10 8 C-6.7 5.36 -3.4 2.72 0 0 Z " fill="#232323" transform="translate(266,324)"/>
<path d="M0 0 C1.65 0 3.3 0 5 0 C4.67 0.99 4.34 1.98 4 3 C8.62 3 13.24 3 18 3 C18 3.33 18 3.66 18 4 C12.39 4 6.78 4 1 4 C0.67 2.68 0.34 1.36 0 0 Z " fill="#E9E9E9" transform="translate(522,161)"/>
<path d="M0 0 C0.33 0.99 0.66 1.98 1 3 C-1.43226526 7.30323854 -4.41897159 10.61791761 -8 14 C-8.66 13.67 -9.32 13.34 -10 13 C-9.16855469 11.96939453 -9.16855469 11.96939453 -8.3203125 10.91796875 C-7.59585937 10.01691406 -6.87140625 9.11585938 -6.125 8.1875 C-5.40570313 7.29417969 -4.68640625 6.40085937 -3.9453125 5.48046875 C-1.92059294 2.96429047 -1.92059294 2.96429047 0 0 Z " fill="#D8D8D8" transform="translate(452,587)"/>
<path d="M0 0 C2.75 0.25 2.75 0.25 5 1 C5 2.65 5 4.3 5 6 C4.01 6 3.02 6 2 6 C2 5.34 2 4.68 2 4 C0.02 4 -1.96 4 -4 4 C-2.3125 1.9375 -2.3125 1.9375 0 0 Z " fill="#222222" transform="translate(371,432)"/>
<path d="M0 0 C2.00720923 0.28674418 4.0085944 0.61866701 6 1 C5.67 2.65 5.34 4.3 5 6 C3.35 6 1.7 6 0 6 C0.33 4.68 0.66 3.36 1 2 C0.34 1.67 -0.32 1.34 -1 1 C-0.67 0.67 -0.34 0.34 0 0 Z " fill="#181818" transform="translate(362,420)"/>
<path d="M0 0 C0.66 0 1.32 0 2 0 C2 0.66 2 1.32 2 2 C0.7934375 2.9590625 0.7934375 2.9590625 -0.4375 3.9375 C-3.23720732 5.81035932 -3.23720732 5.81035932 -4 9 C-4.99 9.66 -5.98 10.32 -7 11 C-7.66 11.99 -8.32 12.98 -9 14 C-8.47929737 9.86330684 -7.3269206 7.78546392 -4.5 4.75 C-3.8709375 4.06421875 -3.241875 3.3784375 -2.59375 2.671875 C-1.73729192 1.77343369 -0.87770076 0.87770076 0 0 Z " fill="#DDDDDD" transform="translate(611,329)"/>
<path d="M0 0 C0.99 0.66 1.98 1.32 3 2 C2.34 2 1.68 2 1 2 C1.33 3.32 1.66 4.64 2 6 C-1.05847848 6.54372951 -3.88772805 7 -7 7 C-4.69 4.69 -2.38 2.38 0 0 Z " fill="#EDEDED" transform="translate(644,294)"/>
<path d="M0 0 C2.31 0 4.62 0 7 0 C5.02 2.31 3.04 4.62 1 7 C-1 4 -1 4 -0.625 1.8125 C-0.41875 1.214375 -0.2125 0.61625 0 0 Z " fill="#151515" transform="translate(248,108)"/>
<path d="M0 0 C0.33 0.99 0.66 1.98 1 3 C0.07421875 4.82421875 0.07421875 4.82421875 -1.3125 6.6875 C-1.76238281 7.31011719 -2.21226562 7.93273437 -2.67578125 8.57421875 C-3.11277344 9.04472656 -3.54976563 9.51523438 -4 10 C-4.66 10 -5.32 10 -6 10 C-6.33 10.99 -6.66 11.98 -7 13 C-7.99 12.67 -8.98 12.34 -10 12 C-9.278125 11.319375 -8.55625 10.63875 -7.8125 9.9375 C-4.76544307 6.90785482 -2.42792046 3.53782696 0 0 Z " fill="#1C1C1C" transform="translate(398,85)"/>
<path d="M0 0 C1.22419811 3.67259434 0.54143712 4.57458418 -1 8 C-1.33 8.99 -1.66 9.98 -2 11 C-2.99 10.67 -3.98 10.34 -5 10 C-5.99 10 -6.98 10 -8 10 C-7.50628906 9.44570313 -7.01257813 8.89140625 -6.50390625 8.3203125 C-5.86324219 7.59585938 -5.22257812 6.87140625 -4.5625 6.125 C-3.92441406 5.40570312 -3.28632813 4.68640625 -2.62890625 3.9453125 C-0.94985535 2.09249509 -0.94985535 2.09249509 0 0 Z " fill="#252525" transform="translate(437,580)"/>
<path d="M0 0 C0.33 0.66 0.66 1.32 1 2 C-0.1446875 3.5778125 -0.1446875 3.5778125 -1.3125 5.1875 C-3.35863783 8.04744265 -5.24405042 10.95019284 -7 14 C-7.66 13.34 -8.32 12.68 -9 12 C-6.03 8.04 -3.06 4.08 0 0 Z " fill="#E6E6E6" transform="translate(569,463)"/>
<path d="M0 0 C0.33 0.66 0.66 1.32 1 2 C3.31 2 5.62 2 8 2 C8 2.66 8 3.32 8 4 C5.64561267 5.42944945 4.51967567 6.08661261 1.75 5.625 C1.1725 5.41875 0.595 5.2125 0 5 C0 3.35 0 1.7 0 0 Z " fill="#1E1E1E" transform="translate(253,384)"/>
<path d="M0 0 C-0.66 1.32 -1.32 2.64 -2 4 C-3.98 3.01 -5.96 2.02 -8 1 C-8.33 1.99 -8.66 2.98 -9 4 C-9.66 4 -10.32 4 -11 4 C-11 2.68 -11 1.36 -11 0 C-6.98195309 -0.84098656 -3.98196457 -1.05404945 0 0 Z " fill="#1F1F1F" transform="translate(419,93)"/>
<path d="M0 0 C0.56203125 0.22558594 1.1240625 0.45117188 1.703125 0.68359375 C1.08824219 1.00972656 0.47335937 1.33585937 -0.16015625 1.671875 C-0.96839844 2.10886719 -1.77664063 2.54585938 -2.609375 2.99609375 C-3.81013672 3.63998047 -3.81013672 3.63998047 -5.03515625 4.296875 C-7.13474772 5.58418929 -8.65135221 6.86766083 -10.296875 8.68359375 C-10.626875 7.69359375 -10.956875 6.70359375 -11.296875 5.68359375 C-9.89135201 4.64747104 -8.47195806 3.6301445 -7.046875 2.62109375 C-6.25796875 2.05261719 -5.4690625 1.48414063 -4.65625 0.8984375 C-2.296875 -0.31640625 -2.296875 -0.31640625 0 0 Z " fill="#212121" transform="translate(481.296875,486.31640625)"/>
<path d="M0 0 C0.66 0.33 1.32 0.66 2 1 C1.34 2.98 0.68 4.96 0 7 C-0.33 6.34 -0.66 5.68 -1 5 C-3.52733235 4.34444881 -3.52733235 4.34444881 -6 4 C-4.03617993 2.49440461 -2.21736634 1.10868317 0 0 Z " fill="#E7E7E7" transform="translate(361,560)"/>
<path d="M0 0 C0.66 0.99 1.32 1.98 2 3 C-0.17424117 5.50037734 -1.73045798 6.43628586 -5 7 C-5 6.01 -5 5.02 -5 4 C-2.5 1.8125 -2.5 1.8125 0 0 Z " fill="#070707" transform="translate(271,322)"/>
<path d="M0 0 C0.99 0.66 1.98 1.32 3 2 C1.02 2.99 -0.96 3.98 -3 5 C-3 5.66 -3 6.32 -3 7 C-3.99 7 -4.98 7 -6 7 C-6 7.66 -6 8.32 -6 9 C-6.66 9 -7.32 9 -8 9 C-6.64531705 4.12314139 -4.28324091 2.51407619 0 0 Z " fill="#171717" transform="translate(232,107)"/>
<path d="M0 0 C0.66 0.33 1.32 0.66 2 1 C1.319375 2.0828125 1.319375 2.0828125 0.625 3.1875 C-0.85494358 5.74894081 -1.97217539 8.23277989 -3 11 C-3.33 11 -3.66 11 -4 11 C-4.49230769 4.6 -4.49230769 4.6 -2 1.5625 C-1.34 1.046875 -0.68 0.53125 0 0 Z " fill="#1B1B1B" transform="translate(419,124)"/>
<path d="M0 0 C0.66 0.33 1.32 0.66 2 1 C-1.07927304 3.70689583 -3.03630232 4.4116152 -7.125 4.375 C-8.42824219 4.38660156 -8.42824219 4.38660156 -9.7578125 4.3984375 C-10.86769531 4.20121094 -10.86769531 4.20121094 -12 4 C-12.66 3.01 -13.32 2.02 -14 1 C-12.86111328 1.01740234 -12.86111328 1.01740234 -11.69921875 1.03515625 C-10.70535156 1.04417969 -9.71148437 1.05320312 -8.6875 1.0625 C-7.70136719 1.07410156 -6.71523437 1.08570312 -5.69921875 1.09765625 C-2.90036151 1.12329862 -2.90036151 1.12329862 0 0 Z " fill="#393939" transform="translate(221,113)"/>
<path d="M0 0 C0.33 0.66 0.66 1.32 1 2 C0.01 2.66 -0.98 3.32 -2 4 C-2.72382467 6.05925139 -2.72382467 6.05925139 -3 8 C-5.97 7.505 -5.97 7.505 -9 7 C-6.03716687 4.61327331 -3.05729491 2.2646629 0 0 Z " fill="#E4E4E4" transform="translate(285,76)"/>
<path d="M0 0 C1 3 1 3 0 5.625 C-2 8 -2 8 -5.6875 8.8125 C-6.780625 8.874375 -7.87375 8.93625 -9 9 C-8.2575 8.443125 -7.515 7.88625 -6.75 7.3125 C-4.08292005 5.06972822 -2.08443768 2.77925025 0 0 Z " fill="#1E1E1E" transform="translate(554,456)"/>
<path d="M0 0 C1.1446875 0.2475 1.1446875 0.2475 2.3125 0.5 C5.03596236 1.09145396 5.03596236 1.09145396 8 1 C7.67 2.32 7.34 3.64 7 5 C4.11424181 4.60196439 3.17810487 4.20990931 1.25 1.9375 C0.8375 1.298125 0.425 0.65875 0 0 Z " fill="#181818" transform="translate(511,175)"/>
<path d="M0 0 C0.66 0 1.32 0 2 0 C3.625 2.5 3.625 2.5 5 5 C3.35 5.66 1.7 6.32 0 7 C-0.38133299 5.0085944 -0.71325582 3.00720923 -1 1 C-0.67 0.67 -0.34 0.34 0 0 Z " fill="#F2F2F2" transform="translate(414,135)"/>
<path d="M0 0 C0.66 1.32 1.32 2.64 2 4 C0.35 5.65 -1.3 7.3 -3 9 C-3.75 7.3125 -3.75 7.3125 -4 5 C-2.0625 2.25 -2.0625 2.25 0 0 Z " fill="#D6D6D6" transform="translate(105,238)"/>
<path d="M0 0 C2.97 0.495 2.97 0.495 6 1 C4.35 2.98 2.7 4.96 1 7 C0.31292445 4.50935112 0 2.62113708 0 0 Z " fill="#E9E9E9" transform="translate(597,313)"/>
<path d="M0 0 C1.65 0 3.3 0 5 0 C5 0.99 5 1.98 5 3 C3.02 3.66 1.04 4.32 -1 5 C-0.67 3.35 -0.34 1.7 0 0 Z " fill="#DFDFDF" transform="translate(287,359)"/>
<path d="M0 0 C0.33 1.32 0.66 2.64 1 4 C-1.31 5.65 -3.62 7.3 -6 9 C-4.86634892 4.46539569 -3.35806626 3.09975347 0 0 Z " fill="#D6D6D6" transform="translate(100,213)"/>
<path d="M0 0 C0.99 0.99 1.98 1.98 3 3 C2.34 4.32 1.68 5.64 1 7 C0.01 6.67 -0.98 6.34 -2 6 C-1.49396008 3.83125748 -1.00016187 2.00032373 0 0 Z " fill="#1E1E1E" transform="translate(396,621)"/>
<path d="M0 0 C1.98 1.65 3.96 3.3 6 5 C2.86650268 6.04449911 2.01031744 5.93423645 -1 5 C-0.67 3.35 -0.34 1.7 0 0 Z " fill="#E6E7E6" transform="translate(331,392)"/>
<path d="M0 0 C-1.29299694 2.88437779 -2.65941363 4.87219421 -5 7 C-5.33 6.01 -5.66 5.02 -6 4 C-2.25 0 -2.25 0 0 0 Z " fill="#E6E6E6" transform="translate(302,370)"/>
<path d="M0 0 C0.33 0.99 0.66 1.98 1 3 C0.01 3.99 -0.98 4.98 -2 6 C-2.33 5.34 -2.66 4.68 -3 4 C-5.01669827 2.86649466 -5.01669827 2.86649466 -7 2 C-4.69 1.34 -2.38 0.68 0 0 Z " fill="#DBDBDB" transform="translate(304,364)"/>
<path d="M0 0 C1.65 1.65 3.3 3.3 5 5 C4.67 5.99 4.34 6.98 4 8 C2 6.8125 2 6.8125 0 5 C-0.25 2.3125 -0.25 2.3125 0 0 Z " fill="#D8D8D8" transform="translate(252,299)"/>
<path d="M0 0 C0.99 0.33 1.98 0.66 3 1 C3 4 3 4 0.5 6.6875 C-0.325 7.450625 -1.15 8.21375 -2 9 C-2 5.61976483 -1.12544378 3.16531063 0 0 Z " fill="#181818" transform="translate(447,149)"/>
<path d="M0 0 C0.12375 0.5775 0.2475 1.155 0.375 1.75 C1.00648824 4.02335767 1.88858191 5.9253529 3 8 C0.5625 7.25 0.5625 7.25 -2 6 C-2.8125 3.875 -2.8125 3.875 -3 2 C-2.01 1.34 -1.02 0.68 0 0 Z " fill="#222222" transform="translate(297,117)"/>
<path d="M0 0 C0.99 0.66 1.98 1.32 3 2 C1.35 3.98 -0.3 5.96 -2 8 C-2.6875 6.25 -2.6875 6.25 -3 4 C-1.5625 1.75 -1.5625 1.75 0 0 Z " fill="#171717" transform="translate(442,596)"/>
<path d="M0 0 C0.33 0 0.66 0 1 0 C1.22151549 1.79008467 1.42682213 3.58218162 1.625 5.375 C1.74101562 6.37273438 1.85703125 7.37046875 1.9765625 8.3984375 C1.98429687 9.25695312 1.99203125 10.11546875 2 11 C1.34 11.66 0.68 12.32 0 13 C-1.29676812 8.38926889 -0.71109139 4.66159911 0 0 Z " fill="#BFBFBF" transform="translate(319,577)"/>
<path d="M0 0 C1.32 0.66 2.64 1.32 4 2 C2.68 3.32 1.36 4.64 0 6 C-0.66 5.67 -1.32 5.34 -2 5 C-1.34 3.35 -0.68 1.7 0 0 Z " fill="#171717" transform="translate(371,549)"/>
<path d="M0 0 C0.66 0.33 1.32 0.66 2 1 C1 4 1 4 -1.0625 5.1875 C-1.701875 5.455625 -2.34125 5.72375 -3 6 C-3 4.35 -3 2.7 -3 1 C-2.01 0.67 -1.02 0.34 0 0 Z " fill="#1B1B1B" transform="translate(486,497)"/>
<path d="M0 0 C0.66 0.33 1.32 0.66 2 1 C1.42655063 3.86724686 1.1385485 4.8614515 -1 7 C-1.66 5.35 -2.32 3.7 -3 2 C-2.01 1.34 -1.02 0.68 0 0 Z " fill="#0E0E0E" transform="translate(300,379)"/>
<path d="M0 0 C1.65 0.33 3.3 0.66 5 1 C3.49336217 4.01327566 0.96833589 4.61056618 -2 6 C-1.34 4.02 -0.68 2.04 0 0 Z " fill="#222222" transform="translate(246,295)"/>
<path d="M0 0 C0 3.51716303 -0.82445585 4.37121748 -3 7 C-3.99 6.67 -4.98 6.34 -6 6 C-4 4 -2 2 0 0 Z " fill="#D1D1D1" transform="translate(113,227)"/>
<path d="M0 0 C1.98 0 3.96 0 6 0 C5.67 1.65 5.34 3.3 5 5 C1.125 2.25 1.125 2.25 0 0 Z " fill="#EAEBEB" transform="translate(125,207)"/>
<path d="M0 0 C0.99 0.33 1.98 0.66 3 1 C3 1.99 3 2.98 3 4 C0 5 0 5 -2.1875 4.0625 C-2.785625 3.711875 -3.38375 3.36125 -4 3 C-2.1875 1.4375 -2.1875 1.4375 0 0 Z " fill="#E8E8E8" transform="translate(251,112)"/>
<path d="M0 0 C-0.66 1.32 -1.32 2.64 -2 4 C-4.31 3.67 -6.62 3.34 -9 3 C-3.2 0 -3.2 0 0 0 Z " fill="#CACACA" transform="translate(552,479)"/>
<path d="M0 0 C1.32 0.99 2.64 1.98 4 3 C3.67 3.99 3.34 4.98 3 6 C2.01 6 1.02 6 0 6 C-0.38218767 4.34385343 -0.71395102 2.67542976 -1 1 C-0.67 0.67 -0.34 0.34 0 0 Z " fill="#E6E6E6" transform="translate(294,436)"/>
<path d="M0 0 C0.66 0.33 1.32 0.66 2 1 C2 1.66 2 2.32 2 3 C0.35666496 4.03789581 -1.31243867 5.03567924 -3 6 C-3.66 6.66 -4.32 7.32 -5 8 C-5 5 -5 5 -2.5 2.3125 C-1.675 1.549375 -0.85 0.78625 0 0 Z " fill="#E7E7E7" transform="translate(295,391)"/>
<path d="M0 0 C1 3 1 3 0.3125 5.125 C-1 7 -1 7 -3.125 7.75 C-4.053125 7.87375 -4.053125 7.87375 -5 8 C-3.62845496 5.04590299 -2.01136276 2.55991624 0 0 Z " fill="#252525" transform="translate(296,378)"/>
<path d="M0 0 C-0.33 1.65 -0.66 3.3 -1 5 C-1.33 4.34 -1.66 3.68 -2 3 C-3.32 3.99 -4.64 4.98 -6 6 C-6.66 5.67 -7.32 5.34 -8 5 C-2.25 0 -2.25 0 0 0 Z " fill="#CDCDCD" transform="translate(277,326)"/>
<path d="M0 0 C1.98 0 3.96 0 6 0 C6 1.32 6 2.64 6 4 C3.69 3.34 1.38 2.68 -1 2 C-0.67 1.34 -0.34 0.68 0 0 Z " fill="#DEDEDE" transform="translate(205,111)"/>
<path d="M0 0 C0.66 0.66 1.32 1.32 2 2 C-0.64 2.99 -3.28 3.98 -6 5 C-5.25 3.0625 -5.25 3.0625 -4 1 C-2 0.125 -2 0.125 0 0 Z " fill="#1B1B1B" transform="translate(276,80)"/>
</svg>
