<?xml version="1.0" encoding="UTF-8"?>
<svg version="1.1" xmlns="http://www.w3.org/2000/svg" width="3000" height="2992">
<path d="M0 0 C990 0 1980 0 3000 0 C3000 987.36 3000 1974.72 3000 2992 C2010 2992 1020 2992 0 2992 C0 2004.64 0 1017.28 0 0 Z " fill="#FEFEFE" transform="translate(0,0)"/>
<path d="M0 0 C218.46 0 436.92 0 662 0 C661.25 236.5625 661.25 236.5625 660.91894531 311.23266602 C660.87880985 333.33830018 660.87880985 333.33830018 660.85467529 355.44395447 C660.84350413 365.28329518 660.79957021 375.12181426 660.73309326 384.96092224 C660.65645451 396.32094412 660.62202723 407.68018056 660.63866059 419.04046261 C660.64585906 424.84631941 660.63482542 430.6504232 660.56941843 436.45595467 C659.79997369 469.68173656 659.79997369 469.68173656 674 499 C674.78505099 500.11376444 675.56713659 501.22963049 676.34502029 502.34841251 C678.38078398 505.1400498 680.58791679 507.52406753 683 510 C683.59941406 510.63067383 684.19882813 511.26134766 684.81640625 511.91113281 C693.91824064 521.46455147 703.27632408 530.29726205 714 538 C714.95390625 538.68707031 715.9078125 539.37414062 716.890625 540.08203125 C726.8539012 546.84282581 737.58865689 549.4259357 749.375 551.125 C750.47352295 551.29257812 751.5720459 551.46015625 752.70385742 551.6328125 C758.23370501 552.4706558 763.77036214 553.24874707 769.3125 554 C771.54264956 554.32669261 773.77176667 554.66048363 776 555 C776.68674805 555.09651855 777.37349609 555.19303711 778.08105469 555.29248047 C798.91879987 558.32925018 818.56897133 567.01794565 837 577 C835.45730076 581.72065967 833.92205381 586.41664092 832 591 C828.18150484 589.67357536 825.64715865 588.03662043 822.625 585.375 C803.19953133 569.4524847 779.5524304 566.25402798 755.39071655 563.25164795 C749.59038104 562.5275171 743.79467782 561.76797889 738 561 C736.97406738 560.8669043 735.94813477 560.73380859 734.89111328 560.59667969 C722.12488315 558.85332242 713.74934298 555.40490771 704 547 C702.84686418 546.04728161 701.69189641 545.09677645 700.53515625 544.1484375 C697.31105435 541.48305781 694.15421715 538.74763556 691 536 C690.30777344 535.41992188 689.61554688 534.83984375 688.90234375 534.2421875 C686.88793957 532.53999458 684.93873561 530.788287 683 529 C682.49355957 528.53287598 681.98711914 528.06575195 681.46533203 527.58447266 C673.10456363 519.78665471 666.16059627 511.84660747 660.25277615 502.05465782 C659.44899884 500.73639571 658.63137505 499.42642049 657.79662418 498.12755024 C650.04159158 486.00726304 648.7216563 476.00442926 648.91992188 461.81616211 C648.91563802 459.70118384 648.90729974 457.58621068 648.89532471 455.47126198 C648.87800263 450.87247481 648.88912985 446.2749392 648.92222595 441.67624092 C648.97637091 434.12395419 648.96759238 426.57242448 648.95227051 419.02000427 C648.93638432 408.52449656 648.94383815 398.0292931 648.96931213 387.53380791 C649.01475794 368.45751643 648.96141272 349.38215571 648.88508391 330.30600551 C648.85788066 323.47524533 648.83210583 316.64447942 648.80605733 309.81371476 C648.79943845 308.08098325 648.79278943 306.34825186 648.78611052 304.61552058 C648.71150858 285.22277488 648.65956702 265.82998904 648.61204362 246.43716046 C648.6054667 243.75892916 648.59881454 241.08069806 648.59213829 238.40246701 C648.55152763 222.10056927 648.51225347 205.79866843 648.47393799 189.49676514 C648.46522316 185.79414873 648.45649486 182.09153236 648.44775391 178.38891602 C648.44559504 177.47397606 648.44343617 176.5590361 648.44121188 175.61637069 C648.40494527 160.2907108 648.36505757 144.96506256 648.32245111 129.63941902 C648.29670412 120.32223094 648.27395643 111.00504588 648.25546753 101.68784051 C648.24267431 95.35232953 648.22650449 89.01683261 648.20781839 82.68133629 C648.19724137 79.05778542 648.18805308 75.43424752 648.18312263 71.8106842 C648.15658308 53.18375175 647.76148096 34.61033215 647 16 C632.85286388 14.92560262 618.75215075 14.861626 604.56993103 14.87974548 C602.01438196 14.8793088 599.45883293 14.87843209 596.90328413 14.87715632 C591.37226977 14.8750964 585.84126624 14.8767025 580.31025314 14.88079453 C572.08600715 14.88686205 563.8617679 14.88712733 555.63752007 14.88625254 C541.79897817 14.88494249 527.96044107 14.88826534 514.12190056 14.89426994 C500.42892368 14.90019609 486.73594881 14.90403773 473.04297066 14.90512276 C472.19014961 14.9051915 471.33732857 14.90526024 470.45866447 14.90533106 C466.1272491 14.90566941 461.79583373 14.90597079 457.46441836 14.90625793 C426.82092273 14.90835583 396.17742971 14.91508616 365.53393555 14.92456055 C335.77254246 14.93375155 306.01115008 14.94083194 276.24975586 14.94506836 C274.87260211 14.94526565 274.87260211 14.94526565 273.46762708 14.94546692 C264.24728627 14.94678549 255.02694545 14.9480613 245.80660463 14.94930578 C227.02533099 14.95184169 208.24405739 14.95466294 189.46278381 14.95765686 C188.16761294 14.9578628 188.16761294 14.9578628 186.846277 14.95807289 C129.23085024 14.96726656 71.61542496 14.9831318 14 15 C13.17964429 42.31946164 12.83943354 69.61678704 12.81405044 96.9478395 C12.80795803 102.35038997 12.79632333 107.75292929 12.78541565 113.1554718 C12.76723841 122.50219414 12.75231778 131.84891685 12.73963928 141.19564819 C12.72099874 154.8827675 12.69633337 168.56987145 12.67026538 182.25697839 C12.6275993 204.70695823 12.5885058 227.15694267 12.55224609 249.60693359 C12.5511649 250.27577792 12.5500837 250.94462224 12.54896974 251.63373457 C12.53913615 257.71754628 12.52932611 263.80135802 12.51953927 269.8851698 C12.13423612 509.33589443 12.13423612 509.33589443 9.70077515 778.9760437 C9.33736282 802.45377846 8.99118278 825.93172416 8.67578125 849.41015625 C8.65944901 850.62349427 8.64311677 851.8368323 8.62628961 853.08693814 C8.10108932 892.41261267 7.86917266 931.73431802 7.80391171 971.06287291 C7.79568029 975.99434759 7.78608222 980.92581798 7.7755928 985.85728836 C7.75791717 994.18545553 7.74152523 1002.51362437 7.7265625 1010.84179688 C7.72472272 1011.86242622 7.72472272 1011.86242622 7.72284576 1012.90367433 C7.69289659 1029.76431575 7.68622259 1046.6246705 7.71534461 1063.48531765 C7.73166311 1073.57757685 7.72794267 1083.66970246 7.70914537 1093.76195675 C7.69743264 1100.7194859 7.71091627 1107.6763171 7.74457538 1114.63376701 C7.75881709 1118.87162426 7.74815648 1123.10914331 7.7302618 1127.34697533 C7.72703928 1129.28534794 7.73397241 1131.22377027 7.75220776 1133.16205978 C7.84729565 1143.87024903 7.64669579 1152.04735309 1 1161 C0.31035156 1161.99515625 -0.37929688 1162.9903125 -1.08984375 1164.015625 C-8.04052937 1172.42110528 -14.88803593 1178.95821857 -24 1185 C-24.83034246 1185.68382494 -25.66068492 1186.36764988 -26.51618928 1187.07219678 C-31.22214395 1189.67628618 -34.97566022 1189.56230566 -40.26831532 1189.52063274 C-41.3057678 1189.52832527 -42.34322028 1189.5360178 -43.41211072 1189.54394343 C-46.90635102 1189.56496278 -50.39995352 1189.55745825 -53.89424133 1189.55021667 C-56.41909319 1189.55950338 -58.94393912 1189.57054137 -61.4687764 1189.58318406 C-66.96964837 1189.60670931 -72.47033209 1189.61782997 -77.97125053 1189.61811447 C-86.15647962 1189.6186112 -94.34153193 1189.64195653 -102.52670723 1189.67002364 C-116.32221088 1189.71669292 -130.11769482 1189.7448696 -143.91326332 1189.76274681 C-157.64327559 1189.78062459 -171.37322843 1189.80716067 -185.10320091 1189.84493446 C-185.9595625 1189.84728707 -186.81592409 1189.84963968 -187.69823603 1189.85206359 C-192.049939 1189.86406802 -196.40164151 1189.87623277 -200.75334384 1189.88846401 C-231.64307078 1189.97504547 -262.53281396 1190.0436888 -293.42260742 1190.10131836 C-323.17197582 1190.15688376 -352.92131942 1190.2183861 -382.6706543 1190.28979492 C-383.57990466 1190.29197387 -384.48915502 1190.29415281 -385.42595843 1190.29639778 C-405.43085914 1190.34436655 -425.43575624 1190.3937702 -445.44065186 1190.44381688 C-450.81141604 1190.45724809 -456.1821803 1190.47064645 -461.55294459 1190.48403469 C-465.98750945 1190.49508964 -470.42207425 1190.50616654 -474.85663893 1190.51729409 C-497.90435914 1190.57505751 -520.95208226 1190.62568502 -543.99983198 1190.67004186 C-559.14483224 1190.69930366 -574.28982573 1190.73164447 -589.43481445 1190.76635742 C-590.19509711 1190.76809269 -590.95537977 1190.76982795 -591.7387013 1190.7716158 C-649.16241798 1190.90337567 -706.57985152 1191.32254422 -764 1192 C-766.54517575 1198.18495279 -767.91749311 1203.40092938 -766 1210 C-759.4078917 1218.72281864 -748.83656488 1224.82729502 -739.375 1229.98046875 C-735.85307696 1232.08791575 -732.94915165 1234.4937498 -730 1237.3125 C-729.45456543 1237.8266748 -728.90913086 1238.34084961 -728.34716797 1238.87060547 C-726.5551201 1240.57059781 -724.77672442 1242.28400623 -723 1244 C-722.03755371 1244.92159912 -722.03755371 1244.92159912 -721.05566406 1245.86181641 C-710.02059888 1256.46535789 -701.91721793 1266.87494055 -694.7253418 1280.40551758 C-692.25965649 1284.98967227 -689.51932971 1289.0700923 -686.33227539 1293.18261719 C-684.07059683 1296.26781697 -682.6288244 1299.7126706 -681.078125 1303.19140625 C-675.60129287 1310.59336546 -666.24889164 1314.64039587 -658.25 1318.8125 C-630.75725803 1333.52562849 -609.11641807 1355.72127081 -587.2578125 1377.609375 C-585.47726751 1379.38924471 -583.69657425 1381.1689661 -581.91574097 1382.94854736 C-577.73632611 1387.12631144 -573.55946954 1391.30662101 -569.38355529 1395.48788381 C-565.59189297 1399.28384919 -561.79655801 1403.07612519 -558.00030434 1406.86749816 C-553.85947847 1411.00321685 -549.72149477 1415.14176876 -545.58468246 1419.28150177 C-543.83841069 1421.02843733 -542.0914049 1422.77463949 -540.34363174 1424.52007294 C-537.90129402 1426.95985563 -535.46221052 1429.40284735 -533.02392578 1431.84667969 C-532.31210648 1432.55647476 -531.60028717 1433.26626984 -530.86689758 1433.99757385 C-526.91538022 1437.96566303 -523.14346219 1442.03295939 -519.50092888 1446.28715897 C-504.17270875 1463.77952971 -480.32642035 1475.98936002 -460.28466797 1487.43432617 C-447.48771307 1494.81292008 -436.58364492 1503.78917938 -426 1514 C-425.18192871 1514.78020508 -424.36385742 1515.56041016 -423.52099609 1516.36425781 C-401.92302379 1537.03542957 -401.92302379 1537.03542957 -396 1549 C-395.47720459 1550.05477539 -395.47720459 1550.05477539 -394.94384766 1551.13085938 C-390.65949186 1559.95922889 -386.97493459 1569.00885235 -383.41967773 1578.15063477 C-377.80202435 1592.56597634 -370.999776 1606.04460223 -363.57470703 1619.60253906 C-352.03359564 1640.7130365 -347.8996724 1659.67746785 -346.34130859 1683.66137695 C-343.76396961 1721.95202366 -321.71597696 1771.05254648 -293 1797 C-288.18458757 1801.0138666 -283.1439423 1804.72953929 -278.09716797 1808.44482422 C-274.94014667 1810.78594479 -271.83945154 1813.1957063 -268.75 1815.625 C-268.18394043 1816.069646 -267.61788086 1816.51429199 -267.03466797 1816.97241211 C-261.95406137 1820.98961891 -257.01731794 1825.16792986 -252.09375 1829.375 C-249.2044868 1831.83915964 -246.26481542 1834.23661 -243.3125 1836.625 C-239.87616666 1839.41054998 -236.59855786 1842.28463874 -233.375 1845.3125 C-220.2633398 1857.09250721 -206.13679347 1864.64676801 -190.05224609 1871.65429688 C-163.93753895 1883.16799595 -138.67545035 1896.69264582 -114 1911 C-113.43049622 1911.33018127 -112.86099243 1911.66036255 -112.27423096 1912.00054932 C-99.78976477 1919.24313892 -87.32608647 1926.51256024 -75.0625 1934.125 C-62.92098576 1941.6508937 -51.76802653 1948.48197232 -37 1947 C-33.56356519 1945.85273471 -30.90223249 1944.14671415 -28 1942 C-26.78376953 1941.11054688 -26.78376953 1941.11054688 -25.54296875 1940.203125 C-13.6409653 1931.0618013 -4.77682631 1920.04479356 4 1908 C4.46083984 1907.37319336 4.92167969 1906.74638672 5.39648438 1906.10058594 C17.09344817 1890.02381732 24.22016671 1872.36309434 29.98828125 1853.4453125 C32.03659814 1846.76197628 34.36012682 1840.19284582 36.75 1833.625 C37.11488525 1832.62178711 37.47977051 1831.61857422 37.85571289 1830.58496094 C38.55804752 1828.66081816 39.26274246 1826.73753504 39.9699707 1824.81518555 C40.66195184 1822.92392353 41.34526643 1821.02947003 42.02026367 1819.13208008 C52.04719794 1791.02020256 70.35918526 1765.54703973 97.92578125 1752.3046875 C102.75285987 1750.25609251 107.68296527 1748.50079387 112.61791992 1746.73095703 C117.9318197 1744.81137108 123.10283893 1742.70235664 128.25 1740.375 C140.75547836 1734.78362313 153.4174915 1730.85660188 167 1729 C167.99644531 1728.85949219 168.99289062 1728.71898437 170.01953125 1728.57421875 C178.79916122 1727.97480626 186.89449159 1730.66712561 195.18920898 1733.24560547 C210.14187186 1737.81890928 225.26995979 1739.39559787 240.81799316 1740.33694458 C245.44781746 1740.61841961 250.07555149 1740.92998671 254.703125 1741.24609375 C255.60851013 1741.30788315 256.51389526 1741.36967255 257.44671631 1741.43333435 C264.41246483 1741.92433249 271.32534799 1742.65911084 278.25 1743.5625 C290.82854773 1745.19802593 303.44482251 1745.75375487 316.11035156 1746.26586914 C316.9037796 1746.30079468 317.69720764 1746.33572021 318.51467896 1746.3717041 C319.99735478 1746.43662305 321.48034188 1746.49494825 322.96359253 1746.54504395 C344.08467235 1747.49091861 362.18275603 1761.01913265 376.5390625 1775.57421875 C380.08557547 1779.45588329 383.39337708 1783.47994191 386.625 1787.625 C396.36125532 1799.92545721 407.66772252 1810.8638187 419.24951172 1821.40234375 C420.91725759 1822.92448168 422.57209301 1824.45926997 424.22265625 1826 C428.8427831 1830.30063433 433.51970002 1834.477713 438.4375 1838.4375 C446.84154583 1845.21181769 454.7364473 1852.60341712 462.28442383 1860.31665039 C464.0184518 1862.01810519 465.81697337 1863.59434055 467.6640625 1865.171875 C472.15254328 1869.07827762 476.36772521 1873.21994815 480.5625 1877.4375 C481.63661133 1878.50581055 481.63661133 1878.50581055 482.73242188 1879.59570312 C486.80066206 1883.67134684 490.69373166 1887.83856827 494.4296875 1892.22143555 C496.02518776 1894.02852811 497.70053428 1895.70441016 499.4375 1897.375 C518.21127333 1916.0651485 527.92943371 1942.55458205 537.10498047 1966.88671875 C548.16725638 1996.04270556 561.36719736 2024.73976787 575.8515625 2052.3515625 C576.25652451 2053.12358505 576.66148651 2053.8956076 577.07872009 2054.69102478 C577.89583395 2056.24775205 578.7129675 2057.80446899 579.53012085 2059.36117554 C590.30820501 2079.91511389 598.90618723 2100.92515377 606.4375 2122.875 C612.07981679 2139.25670142 622.84610749 2150.71987018 634.39453125 2163.1796875 C636.72557923 2165.70295083 639.02483331 2168.24997502 641.3125 2170.8125 C643.92890661 2173.73782045 646.5797936 2176.62201191 649.28515625 2179.46484375 C657.04127827 2187.62873327 664.25506547 2195.98099589 671 2205 C671.63292969 2205.83660156 672.26585937 2206.67320312 672.91796875 2207.53515625 C678.9532399 2215.80775904 683.66613243 2224.91372938 688.57617188 2233.87744141 C696.1429178 2247.67035081 703.85559899 2261.18321869 713 2274 C713.70511719 2274.99257812 714.41023438 2275.98515625 715.13671875 2277.0078125 C719.95411964 2283.39844167 725.69688557 2288.12156212 732 2293 C779.67043126 2331.04073096 779.67043126 2331.04073096 782.80859375 2356.6171875 C783.02587406 2358.70234254 783.23511082 2360.78834697 783.4375 2362.875 C783.68972941 2365.20344962 783.94503161 2367.53156807 784.203125 2369.859375 C784.39938477 2371.63924805 784.39938477 2371.63924805 784.59960938 2373.45507812 C786.45682211 2389.8982055 789.25492208 2405.83776776 793.46923828 2421.83035278 C796.10620981 2431.85408925 798.11178117 2441.81936563 799.6875 2452.0625 C802.90761835 2472.69349255 810.31706258 2488.31706579 821.4465332 2505.77807617 C834.65840756 2526.56379438 843.62794727 2548.01690791 851.42724609 2571.3347168 C854.63574804 2580.89186685 857.92019555 2590.32018827 862.1953125 2599.4609375 C862.5111731 2600.13842545 862.82703369 2600.81591339 863.15246582 2601.51393127 C871.82885445 2619.43357688 887.97799067 2629.20944743 906.1875 2635.5625 C921.88597187 2641.1151659 936.48655854 2649.93628329 951.02172852 2657.9597168 C961.26140675 2663.61120223 971.34315112 2668.67277499 982.40625 2672.55859375 C1000.6327957 2678.97907308 1016.56823117 2688.1415978 1032.77490234 2698.57470703 C1053.05167279 2711.56305308 1070.4449073 2716.20999718 1094.4234314 2716.96627808 C1099.52814533 2717.12924231 1104.63110757 2717.33643913 1109.734375 2717.5390625 C1110.72418869 2717.57750778 1111.71400238 2717.61595306 1112.73381042 2717.65556335 C1120.23020209 2717.95219323 1127.70806536 2718.34046231 1135.1875 2718.9375 C1136.49835571 2719.03140015 1136.49835571 2719.03140015 1137.83569336 2719.12719727 C1162.35267649 2721.24883585 1182.69526791 2736.00765177 1202 2750 C1213.29490989 2758.64416056 1213.29490989 2758.64416056 1227 2760 C1246.5003502 2755.39663864 1265.44095017 2746.41606118 1276.6953125 2729.2265625 C1277.12585937 2728.49179688 1277.55640625 2727.75703125 1278 2727 C1278.3619043 2726.4028418 1278.72380859 2725.80568359 1279.09667969 2725.19042969 C1280.22893037 2722.44487478 1280.06595819 2720.6741991 1279.7578125 2717.7265625 C1279.59200684 2716.12796387 1279.59200684 2716.12796387 1279.42285156 2714.49707031 C1275.56161821 2682.56386796 1269.21543011 2651.38092559 1261.4375 2620.1875 C1261.21197449 2619.28195374 1260.98644897 2618.37640747 1260.75408936 2617.44342041 C1257.84936448 2605.82954411 1254.71618326 2594.29763197 1251.37768555 2582.80102539 C1246.2945015 2565.23685318 1242.06606847 2547.46689612 1238.375 2529.5625 C1238.065625 2528.09949463 1238.065625 2528.09949463 1237.75 2526.60693359 C1234.28753828 2509.46606182 1233.59486072 2492.50192705 1233.625 2475.0625 C1233.62487915 2473.98483368 1233.6247583 2472.90716736 1233.62463379 2471.79684448 C1233.65112233 2455.18806605 1234.53403556 2439.29125114 1238 2423 C1238.31576903 2421.39987064 1238.63090692 2419.79961657 1238.9453125 2418.19921875 C1239.84910796 2413.76932782 1240.91060822 2409.38728624 1242 2405 C1242.20318848 2404.15115234 1242.40637695 2403.30230469 1242.61572266 2402.42773438 C1252.85258432 2359.76777316 1271.00328366 2320.21138292 1294 2283 C1294.58297852 2282.0522168 1295.16595703 2281.10443359 1295.76660156 2280.12792969 C1313.21973226 2251.78865254 1331.05709989 2224.50859909 1354.76123047 2200.97802734 C1356.50596548 2199.24407137 1358.23966256 2197.49958871 1359.97265625 2195.75390625 C1366.67223236 2189.04608819 1373.53444625 2182.85718425 1381 2177 C1382.11107711 2176.09453254 1383.22074569 2175.18732987 1384.328125 2174.27734375 C1395.90840438 2165.00383125 1408.19422703 2156.72627402 1420.42236328 2148.33837891 C1431.43776997 2140.76964322 1441.80349339 2132.63835453 1452 2124 C1452.60360352 2123.49017578 1453.20720703 2122.98035156 1453.82910156 2122.45507812 C1456.04664658 2120.58204234 1458.26243498 2118.70695215 1460.47631836 2116.82958984 C1465.59927002 2112.48571196 1470.74682641 2108.18590613 1476 2104 C1476.81549316 2103.34161133 1476.81549316 2103.34161133 1477.64746094 2102.66992188 C1496.37597678 2087.64950594 1517.75589177 2076.95468858 1539.04579163 2066.09959412 C1548.85208828 2061.09848068 1558.54238375 2055.91079299 1568.16845703 2050.5703125 C1571.35784978 2048.80154425 1574.55200535 2047.04152366 1577.74609375 2045.28125 C1588.86394777 2039.14543408 1599.92895635 2032.93811412 1610.84765625 2026.453125 C1615.64247769 2023.6095085 1620.47408771 2020.83114948 1625.3125 2018.0625 C1626.19075439 2017.55984619 1627.06900879 2017.05719238 1627.97387695 2016.53930664 C1633.27917638 2013.51582509 1638.61752903 2010.56165872 1643.98486328 2007.64990234 C1660.12804348 1998.88261732 1674.97175973 1988.79810366 1688.48828125 1976.30078125 C1689.87013356 1975.03497875 1691.26039859 1973.77748032 1692.68505859 1972.56005859 C1698.77309536 1967.35434599 1704.38080032 1961.69941939 1710 1956 C1715.62422678 1950.29548175 1721.24461205 1944.65521382 1727.33740234 1939.44433594 C1729.4468221 1937.6118356 1731.38237596 1935.64408767 1733.3125 1933.625 C1738.22449348 1928.6626271 1743.51874584 1924.31612126 1749 1920 C1749.96421875 1919.23042969 1750.9284375 1918.46085937 1751.921875 1917.66796875 C1758.27767812 1912.67527569 1764.80729523 1908.03097501 1771.5 1903.5 C1782.13109314 1896.29703779 1792.26179994 1888.80416397 1801.7265625 1880.08984375 C1803.84630212 1878.14128585 1806.00483469 1876.25242667 1808.1875 1874.375 C1811.34692294 1871.62712514 1814.29364261 1868.72819191 1817.2265625 1865.7421875 C1819.04800415 1863.95284173 1820.93714279 1862.28711468 1822.875 1860.625 C1825.8846753 1858.03365795 1828.71088616 1855.32745217 1831.5 1852.5 C1835.50600235 1848.45284009 1839.63468035 1844.65488528 1844 1841 C1844.61617187 1840.45988281 1845.23234375 1839.91976563 1845.8671875 1839.36328125 C1874.13102205 1815.77342712 1920.63408055 1797.64565537 1955.97265625 1788.7421875 C1956.82851318 1788.52425537 1957.68437012 1788.30632324 1958.56616211 1788.08178711 C1960.21864523 1787.66571012 1961.8743052 1787.26196586 1963.53344727 1786.87329102 C1969.44326645 1785.41397514 1974.10375638 1783.55217694 1977.86328125 1778.4921875 C1978.34152344 1777.62851563 1978.81976562 1776.76484375 1979.3125 1775.875 C1980.04919922 1774.57175781 1980.04919922 1774.57175781 1980.80078125 1773.2421875 C1982.66201936 1769.76221788 1983.18047331 1767.60898821 1983.39453125 1763.64453125 C1984.71875547 1741.73979048 1989.05268814 1725.99031885 2000.41821289 1707.375 C2010.36730072 1691.07267559 2019.17394544 1673.28512601 2019.1875 1653.875 C2019.20586914 1652.52535156 2019.20586914 1652.52535156 2019.22460938 1651.1484375 C2019.22654297 1650.25125 2019.22847656 1649.3540625 2019.23046875 1648.4296875 C2019.23663208 1647.22675049 2019.23663208 1647.22675049 2019.24291992 1645.99951172 C2019.02874387 1643.35492174 2018.58152629 1641.01851803 2018.00219727 1638.43847656 C2016.76031261 1632.46218149 2016.71200137 1626.64070505 2016.734375 1620.5546875 C2016.73246155 1619.38600128 2016.7305481 1618.21731506 2016.72857666 1617.01321411 C2016.72722216 1614.55079939 2016.73086693 1612.08837736 2016.73925781 1609.62597656 C2016.74990912 1605.90673276 2016.73936705 1602.18797839 2016.7265625 1598.46875 C2016.71558533 1582.30174407 2017.18383335 1566.84017842 2021.625 1551.1875 C2022.01522339 1549.79313721 2022.01522339 1549.79313721 2022.41333008 1548.37060547 C2026.10481393 1535.66307002 2031.66519562 1523.86020559 2037.23120117 1511.8894043 C2052.50774774 1478.95711389 2063.36872029 1439.69984491 2051.31689453 1403.97509766 C2049.76712699 1399.76137124 2047.97479766 1395.66271759 2046.14257812 1391.56542969 C2043.79508651 1386.29460878 2041.52929913 1380.98806897 2039.25 1375.6875 C2038.47994629 1373.90533081 2038.47994629 1373.90533081 2037.69433594 1372.0871582 C2034.02384148 1363.54189536 2030.59520388 1354.92876645 2027.25 1346.25 C2023.08603863 1335.48738715 2018.43211318 1325.25897851 2012.98095703 1315.10107422 C2002.75693267 1295.93523053 1996.73373662 1274.61752815 1994.0625 1253.0625 C1991.63738723 1236.71934873 1982.23061188 1224.23124418 1973 1211 C1960.11002237 1192.45111088 1949.61386075 1173.70023662 1948.47070312 1150.64057922 C1948.42927437 1149.82325075 1948.38784561 1149.00592229 1948.34516144 1148.16382629 C1947.81721507 1137.03250188 1947.65214429 1125.89197445 1947.46875 1114.75073242 C1947.4482106 1113.56379362 1947.4276712 1112.37685483 1947.4065094 1111.15394819 C1946.95974625 1085.3108637 1946.72128397 1059.46693848 1946.52767944 1033.6209147 C1946.47987962 1027.34769516 1946.42825365 1021.07450703 1946.37695312 1014.80131531 C1946.23174395 996.96595785 1946.09201897 979.13055799 1945.95312548 961.29515039 C1945.83516237 946.14899115 1945.71568227 931.00284648 1945.59148407 915.85673684 C1945.54092172 909.67346399 1945.49159469 903.49018736 1945.44555664 897.30687904 C1945.26886842 873.62787984 1945.04237095 849.9525401 1944.53125 826.27807617 C1944.51244278 825.35760581 1944.49363556 824.43713544 1944.47425842 823.48877203 C1945.34714233 806.94280318 1945.34714233 806.94280318 1939.9375 792.3125 C1939.38964844 791.64863281 1938.84179688 790.98476563 1938.27734375 790.30078125 C1937.52582031 789.54152344 1936.77429687 788.78226563 1936 788 C1935.46544189 787.40662842 1934.93088379 786.81325684 1934.38012695 786.2019043 C1929.63266528 781.3920806 1926.13564833 780.21233504 1919.42480469 780.13208008 C1918.39774414 780.15036865 1917.37068359 780.16865723 1916.3125 780.1875 C1914.15748549 780.15818999 1912.00252716 780.12438228 1909.84765625 780.0859375 C1908.3164917 780.06998535 1908.3164917 780.06998535 1906.75439453 780.05371094 C1886.03429155 779.64966709 1867.06969576 770.55530588 1848.92578125 761.46337891 C1844.78311032 759.39135207 1840.61821672 757.36900468 1836.4375 755.375 C1835.68831299 755.01672119 1834.93912598 754.65844238 1834.16723633 754.28930664 C1828.91184307 751.81169251 1823.58263425 749.56639374 1818.20141602 747.37695312 C1791.60084533 736.55180223 1768.44337711 721.92840188 1745.47729492 704.75366211 C1731.5287509 694.36979644 1720.88030265 688.49313391 1702.9140625 690.3125 C1694.06418912 691.64116732 1685.54962359 694.27619818 1677.01953125 696.92578125 C1676.10558594 697.19777344 1675.19164063 697.46976563 1674.25 697.75 C1673.47140625 697.99234375 1672.6928125 698.2346875 1671.890625 698.484375 C1663.22430688 700.03025877 1655.34875245 698.39783777 1646.875 696.5 C1637.88424839 694.63007342 1629.25223702 693.52758569 1620.0625 693.5625 C1619.11165527 693.56507813 1618.16081055 693.56765625 1617.18115234 693.5703125 C1610.61472241 693.70916212 1604.43499146 694.69836485 1598 696 C1598 691.71 1598 687.42 1598 683 C1605.58042123 680.57619652 1613.03783012 680.64886363 1620.9375 680.6875 C1621.62509399 680.68799347 1622.31268799 680.68848694 1623.02111816 680.68899536 C1634.60869356 680.714506 1645.91093374 681.30364458 1657 685 C1666.03136337 685.80838786 1673.93822379 684.08511313 1682.5625 681.5625 C1684.30370117 681.07426758 1684.30370117 681.07426758 1686.08007812 680.57617188 C1690.07798897 679.44950903 1694.0592618 678.3135794 1698 677 C1713.90171477 675.50926153 1727.80941894 675.49540319 1741 685 C1741.74701172 685.53641113 1742.49402344 686.07282227 1743.26367188 686.62548828 C1747.49041363 689.70298821 1751.64956726 692.86114855 1755.7890625 696.0546875 C1775.3094664 711.00539203 1796.35402494 723.48140002 1819 733 C1822.62952426 734.53122705 1826.25452926 736.072482 1829.875 737.625 C1830.82479736 738.03210205 1831.77459473 738.4392041 1832.75317383 738.85864258 C1840.80074425 742.363326 1848.61842696 746.27148051 1856.4375 750.25 C1876.95053104 760.66477435 1894.83299345 766.55455236 1918.09179688 766.26367188 C1926.71859045 766.34734164 1932.14559894 767.70839904 1939 773 C1940.33611328 773.98226563 1940.33611328 773.98226563 1941.69921875 774.984375 C1949.44728583 781.86478034 1955.88583309 789.13319267 1956.53125 799.68676758 C1957.16577041 810.45294432 1957.320396 821.23028878 1957.5 832.01171875 C1957.5405659 834.31544723 1957.58126522 836.61917336 1957.62208557 838.92289734 C1957.73155988 845.19510265 1957.8348507 851.46739522 1957.93608475 857.73973846 C1957.98954954 861.04202118 1958.04390862 864.34428736 1958.09877151 867.64654708 C1958.97248774 920.31040593 1959.37970637 972.975241 1959.64660001 1025.64533699 C1959.79533748 1054.86213728 1959.99618139 1084.07539936 1960.46484375 1113.2890625 C1960.48376741 1114.5292149 1960.50269108 1115.76936729 1960.52218819 1117.04710007 C1960.69486605 1128.14018687 1960.87902975 1139.22954988 1961.45922852 1150.31005859 C1961.49486121 1151.01833109 1961.53049391 1151.72660358 1961.56720638 1152.45633888 C1962.75358049 1172.58966957 1974.49544671 1190.44475845 1985.9375 1206.375 C1990.02869298 1212.07619544 1993.90314654 1217.84791348 1997.5 1223.875 C1997.89695068 1224.52774902 1998.29390137 1225.18049805 1998.70288086 1225.85302734 C2004.65064261 1236.0277347 2006.91309377 1246.72874606 2008.94723511 1258.18347168 C2012.59564774 1278.47423685 2017.97319612 1295.32062808 2027.42221069 1313.65719604 C2034.24521404 1326.92549059 2039.82566283 1340.54367245 2045.25024414 1354.43212891 C2045.90484676 1356.10719951 2046.55971031 1357.78216818 2047.21484375 1359.45703125 C2047.69241875 1360.6785791 2047.69241875 1360.6785791 2048.17964172 1361.92480469 C2052.01345401 1371.66901874 2056.30536887 1381.19081539 2060.64453125 1390.71875 C2063.63718507 1397.32383454 2066.18130144 1403.96769892 2068 1411 C2068.17241211 1411.64509521 2068.34482422 1412.29019043 2068.52246094 1412.95483398 C2070.28149753 1420.4307395 2070.27096187 1427.83952008 2070.20581055 1435.46899414 C2070.18744934 1437.69363812 2070.18530227 1439.91786585 2070.18554688 1442.14257812 C2070.12678815 1459.30981777 2070.12678815 1459.30981777 2067 1464 C2066.35752096 1466.85319099 2065.78518506 1469.6894463 2065.25 1472.5625 C2061.63824428 1490.61267918 2054.87261171 1507.21279549 2046.69921875 1523.65234375 C2039.82662126 1537.55746709 2035.02313374 1551.77365488 2032 1567 C2031.81614746 1567.88582764 2031.63229492 1568.77165527 2031.44287109 1569.68432617 C2029.66644783 1579.42618075 2029.66215374 1589.12991592 2029.68432617 1598.99829102 C2029.68746053 1601.90094526 2029.66404405 1604.80255098 2029.63867188 1607.70507812 C2029.60078595 1619.37536343 2030.50267226 1630.59698709 2032.31201172 1642.12548828 C2034.27754352 1655.01983081 2033.15808046 1666.57773462 2029 1679 C2028.69449219 1679.94842773 2028.69449219 1679.94842773 2028.3828125 1680.91601562 C2023.7282752 1695.21004222 2016.3707697 1707.99339865 2008.125 1720.5 C1999.52630191 1733.67888128 1998.37072354 1746.5812527 1997.5625 1761.9375 C1996.84006341 1773.15303198 1993.60468533 1780.90243995 1987 1790 C1986.34064453 1790.93392578 1986.34064453 1790.93392578 1985.66796875 1791.88671875 C1980.09336452 1798.57287548 1970.20218135 1799.46620035 1962.19213867 1801.44262695 C1958.79141817 1802.28214229 1955.39417242 1803.13439448 1952 1804 C1950.82695312 1804.2990625 1949.65390625 1804.598125 1948.4453125 1804.90625 C1924.49905032 1811.70389862 1901.66224918 1824.32493586 1879.40879822 1835.34037781 C1875.87036639 1837.089929 1872.31670585 1838.79554288 1868.734375 1840.453125 C1857.2479976 1845.91086695 1848.84755105 1853.97804514 1840 1863 C1832.76418177 1870.31712994 1832.76418177 1870.31712994 1829.1875 1873.3125 C1826.0274451 1876.02893181 1823.0992313 1878.89416115 1820.1875 1881.875 C1815.93156294 1886.17648991 1811.47344528 1890.0406253 1806.7421875 1893.80859375 C1805.01549959 1895.18846827 1803.30886149 1896.59419664 1801.6328125 1898.03515625 C1795.43875242 1903.32880185 1788.8753088 1907.88396701 1782.125 1912.4375 C1766.15822125 1923.21111623 1750.59544189 1934.79013308 1737.2578125 1948.76953125 C1735.40333836 1950.60154636 1733.52551149 1952.27064134 1731.54296875 1953.95703125 C1727.83713682 1957.17129951 1724.3661056 1960.57010052 1720.91796875 1964.0546875 C1720.10175049 1964.87917641 1720.10175049 1964.87917641 1719.26904297 1965.72032166 C1717.0082298 1968.00863398 1714.75097096 1970.30036878 1712.4987793 1972.59716797 C1705.3257128 1979.90258656 1698.07088304 1986.67866632 1690 1993 C1688.98550781 1993.83789062 1687.97101562 1994.67578125 1686.92578125 1995.5390625 C1671.82220004 2007.59483584 1654.87264529 2017.17889056 1637.85327148 2026.23242188 C1631.2179851 2029.76836302 1624.7046752 2033.45716547 1618.25 2037.3125 C1592.28300213 2052.8004302 1565.87531047 2067.3962989 1538.96630859 2081.18457031 C1515.46869587 2093.22563201 1494.18056996 2105.80231008 1474.22265625 2123.203125 C1470.53177194 2126.42053993 1466.75349039 2129.52317567 1462.94921875 2132.60546875 C1460.7536592 2134.38808862 1458.57070329 2136.18230335 1456.39453125 2137.98828125 C1443.75698922 2148.43239988 1430.59175345 2158.03909113 1416.90625 2167.0625 C1402.49681007 2176.66879329 1388.8953246 2187.32300472 1376.140625 2199.04296875 C1374.21228157 2200.80592506 1372.2437201 2202.49953949 1370.25 2204.1875 C1360.25652006 2212.92419341 1351.12964784 2222.51350013 1343 2233 C1341.83791016 2234.43666016 1341.83791016 2234.43666016 1340.65234375 2235.90234375 C1333.93607686 2244.34291371 1328.21494784 2253.29091698 1322.56201172 2262.46875 C1321.02166111 2264.96489803 1319.46790538 2267.45217983 1317.91015625 2269.9375 C1286.9704 2319.41416822 1259.49569257 2371.70258755 1250 2430 C1249.84901855 2430.92216309 1249.69803711 2431.84432617 1249.54248047 2432.79443359 C1243.94089326 2468.74248353 1245.86272277 2505.99122962 1254.3515625 2541.28857422 C1254.98545395 2543.93917602 1255.59028941 2546.5948261 1256.1875 2549.25390625 C1258.51634144 2559.49849517 1261.2738342 2569.56613666 1264.27075195 2579.63427734 C1267.19799863 2589.52232235 1269.78133383 2599.48772567 1272.32421875 2609.48046875 C1273.3257703 2613.41305662 1274.35821441 2617.33179535 1275.45703125 2621.23828125 C1279.16208105 2634.54892128 1281.9556687 2648.02546133 1284.6875 2661.5625 C1284.9761795 2662.97858551 1284.9761795 2662.97858551 1285.27069092 2664.42327881 C1288.91345644 2682.3659154 1292.31816245 2700.66092114 1293 2719 C1293.07049561 2719.75063721 1293.14099121 2720.50127441 1293.21362305 2721.2746582 C1293.64275309 2728.37747679 1291.73763406 2732.15729184 1287.4375 2737.6875 C1286.66696289 2738.74807617 1286.66696289 2738.74807617 1285.88085938 2739.83007812 C1280.341819 2747.29574123 1274.3415263 2753.25469008 1266.375 2758.0625 C1265.3377478 2758.6975647 1265.3377478 2758.6975647 1264.27954102 2759.34545898 C1255.94276432 2764.36015503 1247.80636513 2768.91040387 1238 2770 C1237.67 2770.99 1237.34 2771.98 1237 2773 C1228.2049093 2774.90045652 1216.41554148 2776.42274224 1208.03125 2772.671875 C1205.8125 2770.8125 1205.8125 2770.8125 1203.61328125 2768.6015625 C1200.19338943 2765.19700652 1196.418558 2762.489655 1192.5 2759.6875 C1191.73212158 2759.13360596 1190.96424316 2758.57971191 1190.1730957 2758.0090332 C1162.47469026 2738.24000891 1138.79452446 2731.36646046 1105.02111816 2730.61349487 C1060.468945 2729.61313635 1060.468945 2729.61313635 1046 2722 C1044.41058594 2721.16855469 1044.41058594 2721.16855469 1042.7890625 2720.3203125 C1035.89105341 2716.5161473 1029.26903785 2712.29010035 1022.625 2708.0625 C1009.03368628 2699.42908348 995.59730847 2692.19308277 980.68554688 2686.10839844 C960.70456791 2677.86170348 940.84891898 2668.93804217 922.14746094 2658.06079102 C914.58529579 2653.66500311 907.06585035 2650.41513018 898.8125 2647.5 C878.87736472 2640.39985768 860.62899128 2627.57287301 851.03515625 2608.14453125 C844.39668727 2593.822227 839.59428463 2578.66609774 834.57983398 2563.72070312 C829.7388139 2549.41133447 824.15187935 2535.55933179 816.25 2522.625 C815.84297852 2521.94348877 815.43595703 2521.26197754 815.01660156 2520.55981445 C812.19783145 2515.87405984 809.2684093 2511.26142057 806.32495117 2506.65332031 C793.90471162 2487.20758795 787.5389721 2468.64427158 784.625 2445.75 C783.66601732 2438.31565961 782.13588995 2431.26436436 780.0625 2424.0625 C775.83175708 2409.29404915 773.15117292 2394.56673053 771.9375 2379.25 C769.95842412 2354.38066025 764.55901155 2342.00129123 747 2324 C746.09507813 2323.05511719 745.19015625 2322.11023437 744.2578125 2321.13671875 C737.79799572 2314.50147563 730.79425084 2308.69926762 723.46875 2303.046875 C700.45767086 2285.13318681 687.75859019 2259.84938261 673.93286133 2234.73925781 C668.79128536 2225.45036281 663.55264161 2216.29574343 656.5 2208.3125 C656.02425537 2207.76271484 655.54851074 2207.21292969 655.05834961 2206.64648438 C653.71145454 2205.09253308 652.35602545 2203.54599027 651 2202 C650.39285156 2201.29230469 649.78570313 2200.58460938 649.16015625 2199.85546875 C643.16051066 2192.88766519 636.83333413 2186.20296153 630.57617188 2179.46728516 C613.21902865 2160.77070378 598.50122552 2142.92417428 590.3125 2118.375 C583.46312809 2097.9230399 574.50603474 2078.43637441 564.44287109 2059.38452148 C548.27167486 2028.76156982 534.06339604 1997.26566552 521.56820679 1964.97772217 C517.90162268 1955.5301455 514.00278717 1946.27092818 509.625 1937.125 C509.1614209 1936.15183838 508.6978418 1935.17867676 508.22021484 1934.17602539 C503.5520905 1924.64908807 498.11042415 1915.76334011 491.0625 1907.8125 C490.28773315 1906.92280518 490.28773315 1906.92280518 489.49731445 1906.01513672 C486.07473252 1902.11869162 482.51799582 1898.39888255 478.79296875 1894.7890625 C476.93067862 1892.93082964 475.21407621 1890.99526175 473.5 1889 C468.09131577 1882.73279447 462.2058221 1877.10675935 455.93359375 1871.71484375 C454.04505403 1870.03995701 452.26844352 1868.30052413 450.5 1866.5 C446.83719951 1862.7880344 442.95935108 1859.39099262 439 1856 C437.92167305 1855.06924434 436.84356534 1854.13823463 435.765625 1853.20703125 C430.35789609 1848.54486009 424.93448656 1843.91888062 419.375 1839.4375 C402.24492377 1825.44217835 384.7964245 1809.34586184 371.50878906 1791.59155273 C361.61907841 1778.39109743 346.74814545 1764.35022111 329.89233398 1761.46875 C319.61707557 1760.1009003 309.33718942 1759.24570742 299 1758.5 C288.76901354 1757.76195388 278.64014463 1756.88234491 268.47924805 1755.45751953 C259.46347809 1754.27194989 250.4443977 1753.90944947 241.36083984 1753.71044922 C227.15405733 1753.37997109 214.36070303 1752.05677832 200.671875 1748.24609375 C170.49242253 1739.9042194 151.61387587 1743.9868631 123.81176758 1757.09814453 C117.604967 1760.01428354 111.73507725 1762.54627495 105 1764 C82.93407846 1773.38647987 66.76217256 1793.4390182 57.875 1815.1640625 C49.89781771 1835.41182322 42.4405219 1856.21599851 36.5390625 1877.171875 C35.1468969 1881.83689121 33.22588382 1885.90830708 30.8125 1890.125 C30.38888184 1890.87362305 29.96526367 1891.62224609 29.52880859 1892.39355469 C20.16544115 1908.61113043 9.80876694 1924.2989815 -3 1938 C-3.60585938 1938.67417969 -4.21171875 1939.34835937 -4.8359375 1940.04296875 C-14.56039451 1950.40781683 -28.13768249 1960.90453729 -42.8125 1961.375 C-61.58990629 1961.12629263 -78.70223117 1948.18734514 -94.0390625 1938.484375 C-108.04167965 1929.65439212 -122.57806232 1921.69770692 -137.03808594 1913.65136719 C-139.70891563 1912.16228938 -142.37506387 1910.66531546 -145.0390625 1909.1640625 C-154.55583469 1903.81226344 -164.17208657 1898.75614415 -174 1894 C-174.81903809 1893.60280762 -175.63807617 1893.20561523 -176.48193359 1892.79638672 C-185.46168219 1888.45274879 -194.45736128 1884.18358111 -203.625 1880.25 C-220.22036796 1873.06585803 -232.9751768 1862.88999469 -246.453125 1851.0859375 C-250.23616014 1847.77929945 -254.10535049 1844.58950538 -258.01171875 1841.4296875 C-260.31926975 1839.55348263 -262.61088889 1837.66277145 -264.89453125 1835.7578125 C-273.22704075 1828.81966409 -281.69301261 1822.14661298 -290.3984375 1815.68359375 C-300.58856904 1808.11446877 -309.60729636 1800.5443884 -316.875 1790.0625 C-317.6469873 1788.95660522 -317.6469873 1788.95660522 -318.43457031 1787.82836914 C-326.407877 1776.22599533 -332.82684521 1763.7669263 -338.96435547 1751.12011719 C-340.0450233 1748.90783067 -341.14904498 1746.70810388 -342.25390625 1744.5078125 C-353.7092575 1721.4007741 -358.49693087 1699.0235165 -360.91113281 1673.50195312 C-363.1554797 1650.03542018 -371.27163552 1632.78782578 -382.55078125 1612.375 C-388.70975786 1601.12184802 -393.57496762 1589.53819012 -398.3359375 1577.6328125 C-400.7095632 1571.69960392 -403.13365785 1565.79551967 -405.6875 1559.9375 C-406.1671521 1558.78906616 -406.1671521 1558.78906616 -406.65649414 1557.61743164 C-411.56869284 1546.5169637 -420.52089877 1538.1303097 -428.99780273 1529.68652344 C-430.67650724 1528.01097211 -432.34142669 1526.32252709 -434.00585938 1524.6328125 C-444.2790343 1514.29582081 -455.09474129 1505.70544638 -467.8125 1498.5 C-469.72998261 1497.3881247 -471.6466445 1496.27483286 -473.5625 1495.16015625 C-474.48804688 1494.62406738 -475.41359375 1494.08797852 -476.3671875 1493.53564453 C-485.79820555 1488.03480036 -494.94006859 1482.14833626 -503.875 1475.875 C-504.54055908 1475.40827881 -505.20611816 1474.94155762 -505.8918457 1474.46069336 C-507.94684474 1472.99798919 -509.97466955 1471.50352579 -512 1470 C-512.67106781 1469.50537766 -513.34213562 1469.01075531 -514.03353882 1468.50114441 C-522.67812325 1461.86253491 -530.18628458 1454.08436412 -537.859375 1446.37109375 C-539.37733989 1444.85193421 -540.89567744 1443.33314695 -542.41436768 1441.81471252 C-545.58095234 1438.64657179 -548.74417459 1435.47512584 -551.90478516 1432.30102539 C-555.94332292 1428.24546287 -559.98844787 1424.19654998 -564.03588486 1420.14987087 C-567.16581125 1417.01967184 -570.29311941 1413.88686804 -573.41956329 1410.75319099 C-574.91002509 1409.25956238 -576.40107976 1407.76652513 -577.8927536 1406.27410698 C-579.97887517 1404.18580269 -582.06166358 1402.09422971 -584.14355469 1400.00170898 C-584.75147354 1399.39424332 -585.3593924 1398.78677765 -585.98573303 1398.16090393 C-589.39977367 1394.72151247 -592.62713009 1391.18640112 -595.73476028 1387.46705723 C-597.27077237 1385.68603691 -598.93338257 1384.17857316 -600.75 1382.6875 C-606.70874629 1377.61237008 -612.08945329 1371.9546459 -617.578125 1366.3828125 C-622.55059455 1361.36458403 -627.61868319 1356.57558959 -633 1352 C-634.47726562 1350.700625 -634.47726562 1350.700625 -635.984375 1349.375 C-642.57493693 1343.7153084 -649.34134835 1339.12936596 -657 1335 C-657.93972656 1334.47664063 -658.87945313 1333.95328125 -659.84765625 1333.4140625 C-664.19642361 1331.00419704 -668.55979727 1328.73234917 -673.0625 1326.625 C-678.66122571 1323.86581939 -683.33533538 1320.11636193 -688 1316 C-688.68578125 1315.39800781 -689.3715625 1314.79601563 -690.078125 1314.17578125 C-693.30711728 1310.52019446 -694.98206439 1306.09546336 -697.0234375 1301.703125 C-698.4048066 1298.92108254 -700.02263711 1296.55474654 -701.92578125 1294.1015625 C-705.09173217 1290.01582783 -707.42888965 1285.69652199 -709.8125 1281.125 C-713.79970237 1273.78046627 -718.01322772 1267.87927499 -724 1262 C-725.46540021 1260.50311928 -726.9287366 1259.00421687 -728.390625 1257.50390625 C-730.00901848 1255.85539703 -731.6288268 1254.20827567 -733.25 1252.5625 C-734.42175781 1251.37043945 -734.42175781 1251.37043945 -735.6171875 1250.15429688 C-736.36742187 1249.40341797 -737.11765625 1248.65253906 -737.890625 1247.87890625 C-738.56125977 1247.2041626 -739.23189453 1246.52941895 -739.92285156 1245.83422852 C-743.37157148 1242.7888321 -746.33749244 1240.71919984 -751.0078125 1240.62109375 C-754.22688269 1240.30701975 -754.91029057 1240.07338615 -757.5546875 1237.91015625 C-758.70324219 1236.50056641 -758.70324219 1236.50056641 -759.875 1235.0625 C-760.79171005 1233.97868312 -761.71401621 1232.89958497 -762.640625 1231.82421875 C-763.4130957 1230.92388916 -763.4130957 1230.92388916 -764.20117188 1230.00537109 C-768.59247726 1225.10985231 -773.38431712 1220.58010583 -778.06982422 1215.96899414 C-778.82279785 1215.22383545 -779.57577148 1214.47867676 -780.3515625 1213.7109375 C-781.03041504 1213.04368652 -781.70926758 1212.37643555 -782.40869141 1211.68896484 C-784.58482471 1209.37928547 -784.97235282 1208.25988347 -785.3125 1205.0625 C-785.209375 1204.051875 -785.10625 1203.04125 -785 1202 C-784.00806641 1201.40058594 -784.00806641 1201.40058594 -782.99609375 1200.7890625 C-780.60229309 1199.04414763 -780.60229309 1199.04414763 -780.609375 1195.42578125 C-780.6358801 1194.05414252 -780.6834691 1192.68278062 -780.75 1191.3125 C-780.77707031 1190.2596582 -780.77707031 1190.2596582 -780.8046875 1189.18554688 C-780.85173787 1187.45644564 -780.92348127 1185.72804795 -781 1184 C-781.99 1184 -782.98 1184 -784 1184 C-784 1183.01 -784 1182.02 -784 1181 C-780.42617327 1179.39080729 -777.53875043 1178.71946723 -773.62931633 1178.59259796 C-772.51596228 1178.55482978 -771.40260823 1178.51706161 -770.25551617 1178.47814894 C-769.00039475 1178.44801726 -767.74527333 1178.41788558 -766.45211792 1178.38684082 C-765.77811156 1178.36843425 -765.10410519 1178.35002768 -764.40967439 1178.33106333 C-740.72533962 1177.69124593 -717.02144776 1177.83067617 -693.33036913 1177.81549903 C-685.83643351 1177.81049635 -678.34250858 1177.79971887 -670.84857965 1177.78879793 C-657.00935823 1177.76876628 -643.17013523 1177.75300928 -629.33090591 1177.73963928 C-610.37658046 1177.72126991 -591.42226684 1177.6965634 -572.46795093 1177.67026538 C-563.59508871 1177.65796365 -554.72222608 1177.64596862 -545.84936333 1177.63405609 C-544.96136261 1177.63286357 -544.07336189 1177.63167104 -543.15845206 1177.63044238 C-522.07259695 1177.60219775 -500.9867384 1177.57697263 -479.90087891 1177.55224609 C-478.97980015 1177.5511649 -478.0587214 1177.5500837 -477.10973117 1177.54896974 C-464.98134017 1177.53473594 -452.85294904 1177.5206087 -440.72455788 1177.50651073 C-423.99361785 1177.48706087 -407.26267795 1177.46750423 -390.53173828 1177.44775391 C-389.61636219 1177.44667444 -388.70098609 1177.44559497 -387.75787132 1177.4444828 C-366.77244674 1177.4197196 -345.78702365 1177.3940973 -324.80160332 1177.36594391 C-323.47037453 1177.36415853 -323.47037453 1177.36415853 -322.11225223 1177.36233709 C-313.23922593 1177.35041872 -304.36619983 1177.3383587 -295.49317401 1177.32608688 C-276.59109976 1177.299977 -257.68902728 1177.27629754 -238.78694384 1177.25791349 C-224.97530421 1177.24444197 -211.16367162 1177.22769655 -197.35203971 1177.20781839 C-189.91091202 1177.19720717 -182.46978988 1177.18796249 -175.02865601 1177.18312263 C-145.06161578 1177.16278983 -115.09964534 1177.01765752 -85.13566822 1176.58198895 C-82.99363387 1176.55113757 -80.85158557 1176.52150291 -78.70953073 1176.49211174 C-46.22498513 1178.03876568 -46.22498513 1178.03876568 -18.87890625 1164.03515625 C-5.66856391 1150.37033968 -5.70203979 1138.17903133 -5.71289062 1120.1159668 C-5.70681111 1118.08723616 -5.69983781 1116.05850804 -5.69204712 1114.02978325 C-5.67707305 1109.64774779 -5.66825837 1105.26575846 -5.66419983 1100.88369942 C-5.65754392 1093.83518232 -5.63678914 1086.78674733 -5.61413574 1079.73826599 C-5.58292546 1069.64365428 -5.5575595 1059.54904375 -5.53613281 1049.45440674 C-5.48212027 1024.41375662 -5.3921506 999.37322077 -5.29634857 974.33269978 C-5.28626542 971.69227034 -5.27628142 969.05184052 -5.26639557 966.41141033 C-5.0619229 911.8698341 -4.4769574 857.3410043 -3.6237793 802.80621338 C-2.36326975 722.17041147 -1.80834961 641.53499595 -1.54088575 560.89021957 C-1.50888138 551.25051802 -1.47519939 541.61082331 -1.44070435 531.97113037 C-1.1559368 452.2373647 -0.93251209 372.50343318 -0.72342762 292.76943693 C-0.71272082 288.6865438 -0.70199714 284.60365071 -0.69127281 280.52075763 C-0.44632891 187.01387459 -0.22648737 93.50692913 0 0 Z " fill="#464646" transform="translate(859,73)"/>
<path d="M0 0 C11.0193927 6.03015626 14.20096386 15.02948654 17.62548828 26.57006836 C20.23684443 35.6240344 22.57907242 44.74659805 24.75 53.91577148 C24.93820313 54.69766846 25.12640625 55.47956543 25.3203125 56.28515625 C25.48112305 56.96843994 25.64193359 57.65172363 25.80761719 58.35571289 C26.45167687 60.48882792 27.35131794 62.349562 28.3984375 64.3125 C40.34609555 57.03028191 51.31394153 49.76606368 58.3984375 37.3125 C58.78773438 36.64347656 59.17703125 35.97445312 59.578125 35.28515625 C64.97690586 25.33484846 64.64169485 15.32665229 64.3984375 4.3125 C70.33577679 0.64747575 78.56509095 1.44972399 85.140625 2.9296875 C90.05164855 4.79819141 93.10364638 7.40138511 95.58984375 12.046875 C98.20250164 19.36736571 96.41169813 27.36939756 93.3984375 34.3125 C82.20954715 53.73611824 59.27402194 65.09336541 40.92529297 76.66186523 C38.40548464 78.25914602 38.40548464 78.25914602 36.18798828 80.02758789 C34.3984375 81.3125 34.3984375 81.3125 32.3984375 81.3125 C39.37574669 114.30288747 39.37574669 114.30288747 59.34765625 139.21875 C66.12801936 142.83494366 76.00317153 142.31533122 83.39453125 140.62890625 C89.0489998 138.50296722 93.87545239 135.29235233 98.3984375 131.3125 C99.275 130.67183594 100.1515625 130.03117188 101.0546875 129.37109375 C104.63275608 124.70171426 104.34535017 120.05420928 104.5859375 114.3125 C104.7276848 112.03758524 104.87218345 109.76284013 105.01953125 107.48828125 C105.08382324 106.40756348 105.14811523 105.3268457 105.21435547 104.21337891 C107.05675265 75.17974051 119.91286362 46.10545888 141.76708984 26.66894531 C155.67823677 15.10199944 172.02539303 8.1068741 190.1484375 8 C190.94056641 7.99444092 191.73269531 7.98888184 192.54882812 7.9831543 C208.43739897 8.17760647 220.49467569 15.15979386 231.3984375 26.3125 C231.5634375 25.631875 231.7284375 24.95125 231.8984375 24.25 C234.90116427 18.36966007 240.21791637 14.43083056 246.3984375 12.3125 C250.14109174 11.9071779 253.8859224 11.98804792 257.6484375 12 C258.64746094 11.98388672 259.64648438 11.96777344 260.67578125 11.95117188 C267.12785606 11.94695483 272.43117244 12.83737735 278.3984375 15.3125 C277.09715428 19.34102797 275.62374126 23.24161367 274.015625 27.15625 C271.02651009 34.8907217 269.26745728 42.73067407 267.5234375 50.8125 C267.01057181 53.13394415 266.49392394 55.454524 265.97680664 57.77502441 C265.6279544 59.34046835 265.28013364 60.90614251 264.93334961 62.4720459 C263.2736623 69.94456241 261.47242532 77.37849573 259.6484375 84.8125 C257.48766351 93.65208474 255.42365703 102.4959752 253.63964844 111.41992188 C253.00010445 114.59817092 252.28893514 117.65952007 251.3125 120.75390625 C250.20951458 125.04800759 250.06754039 128.96337329 250.0859375 133.375 C250.06982422 134.15166016 250.05371094 134.92832031 250.03710938 135.72851562 C250.03295387 140.63616423 250.55145202 144.13816181 253.3984375 148.3125 C257.88338846 151.87186544 261.79442705 151.81073 267.328125 151.66796875 C271.91182186 151.13728629 275.42360502 149.57594628 279.3984375 147.3125 C280.5121875 146.755625 281.6259375 146.19875 282.7734375 145.625 C285.99046889 142.79094854 286.49167551 140.57991696 287.640625 136.55859375 C289.27835829 131.70448736 292.6080792 128.52977965 296.8984375 125.9375 C304.67424001 122.42442476 313.82100634 123.63729108 321.69140625 126.265625 C323.92774425 127.63710917 324.56822376 128.84504909 325.3984375 131.3125 C325.0684375 132.3025 324.7384375 133.2925 324.3984375 134.3125 C323.69897055 143.90326804 324.31267058 152.35657132 329.4609375 160.625 C336.83601584 167.3724121 344.8344189 169.57258608 354.58203125 169.46875 C361.9804916 169.0582945 368.49827427 166.81718643 374.1484375 161.9375 C378.60297101 156.74054424 378.84924806 151.82016896 378.703125 145.1796875 C378.02154649 138.76585894 373.56968592 135.28930283 368.96728516 131.29467773 C364.36462765 127.74316887 359.30348807 124.95107396 354.25595093 122.08978271 C351.0044657 120.24426833 347.77205382 118.36594928 344.5390625 116.48828125 C343.91061935 116.12383911 343.28217621 115.75939697 342.63468933 115.38391113 C327.193598 106.39838626 311.49480286 97.1622184 305.3984375 79.3125 C302.67024748 66.25239036 304.05336498 53.86000786 311.2109375 42.5 C312.24377603 41.08207846 313.30551156 39.6846406 314.3984375 38.3125 C314.87667969 37.70921875 315.35492187 37.1059375 315.84765625 36.484375 C326.44392816 24.63363261 342.9264992 19.18225485 358.33349609 18.01416016 C382.85717838 16.66221605 407.07448472 18.08294007 426.7109375 34.5625 C432.58734795 40.08333148 437.99517684 47.10977635 438.63671875 55.38671875 C438.92042291 69.19863169 438.92042291 69.19863169 434.3984375 74.3125 C428.43118555 79.91736822 422.12814409 81.05951566 414.17651367 80.89379883 C408.62726657 80.57698364 404.9004214 79.52820279 400.3984375 76.3125 C400.0684375 75.3225 399.7384375 74.3325 399.3984375 73.3125 C399.7284375 72.6525 400.0584375 71.9925 400.3984375 71.3125 C401.0947335 62.18074915 400.69436472 54.54374742 396.3984375 46.3125 C396.10710938 45.60480469 395.81578125 44.89710938 395.515625 44.16796875 C394.10583613 41.82653619 392.85721135 41.45312302 390.3984375 40.3125 C389.40565796 39.79139648 389.40565796 39.79139648 388.39282227 39.25976562 C382.59002799 36.4042417 377.75927507 35.69455042 371.3359375 35.8125 C370.48966797 35.79703125 369.64339844 35.7815625 368.77148438 35.765625 C361.84987425 35.80831805 356.57045499 37.51366104 351.33984375 42.12890625 C350.88480469 42.70511719 350.42976563 43.28132812 349.9609375 43.875 C349.25130859 44.74318359 349.25130859 44.74318359 348.52734375 45.62890625 C345.54762382 50.07271002 345.99894444 55.18958905 346.3984375 60.3125 C348.44630433 68.23091842 354.70161356 72.91840141 361.3449707 77.22070312 C364.56635876 79.11365522 367.8158598 80.94252678 371.0859375 82.75 C373.4055436 84.05821811 375.71999311 85.37531902 378.03515625 86.69140625 C379.13649902 87.31547363 380.2378418 87.93954102 381.37255859 88.58251953 C391.24160459 94.22493198 400.30362679 100.24670295 408.3984375 108.3125 C409.05585938 108.94671875 409.71328125 109.5809375 410.390625 110.234375 C418.64062638 118.80304596 421.06312195 128.27386284 420.85620117 139.86621094 C420.61744661 145.43280604 419.84596009 150.25920983 417.3984375 155.3125 C417.12 155.98152344 416.8415625 156.65054688 416.5546875 157.33984375 C411.43293285 168.84171519 401.6523217 176.35959975 390.2109375 181.0625 C387.95306955 181.8506728 385.68161459 182.60096194 383.3984375 183.3125 C382.37234375 183.63347656 381.34625 183.95445312 380.2890625 184.28515625 C371.34876665 186.54121682 362.45026738 186.59957708 353.2734375 186.625 C352.01088135 186.63055908 350.7483252 186.63611816 349.44750977 186.6418457 C329.3919847 186.48884991 310.54412583 182.45641836 295.7734375 168 C293.95845815 166.1146439 292.56708615 164.64979729 291.3984375 162.3125 C287.77106366 163.9160908 284.93551625 166.16927515 281.8359375 168.625 C276.38020029 172.83853378 270.80094151 175.79397947 264.3984375 178.3125 C263.52960937 178.67214844 262.66078125 179.03179688 261.765625 179.40234375 C250.36840446 183.7844434 236.3297918 182.05186569 225.3984375 177.3125 C222.39515887 175.60127228 219.90439973 173.68626697 217.3984375 171.3125 C216.85703125 170.81105469 216.315625 170.30960938 215.7578125 169.79296875 C208.90525118 162.68084071 206.13895564 152.8062353 204.3984375 143.3125 C203.85316406 144.07433594 203.30789063 144.83617187 202.74609375 145.62109375 C192.06159174 160.25064265 179.69308427 172.24067063 161.3984375 176.3125 C151.1164465 176.93410699 141.7670285 177.13105875 132.3984375 172.3125 C131.52703125 171.86519531 130.655625 171.41789063 129.7578125 170.95703125 C118.6923892 164.77828441 112.90119699 156.46033173 107.3984375 145.3125 C106.75519531 146.01375 106.11195313 146.715 105.44921875 147.4375 C96.48624193 156.84798636 86.62276085 163.59740385 74.3984375 168.3125 C72.8825 168.9003125 72.8825 168.9003125 71.3359375 169.5 C57.27111513 173.39027002 40.44055531 172.28601393 27.4609375 165.5625 C8.8282195 154.22323882 0.99690083 134.61202373 -4.0390625 114.1875 C-4.58061142 111.89954223 -5.09778998 109.60920206 -5.6015625 107.3125 C-20.15922986 114.3100261 -29.7938901 125.41153973 -35.6015625 140.3125 C-36.46059127 143.26216776 -36.78039393 146.01217177 -36.91796875 149.078125 C-36.95986328 149.96757813 -37.00175781 150.85703125 -37.04492188 151.7734375 C-37.08423828 152.69382812 -37.12355469 153.61421875 -37.1640625 154.5625 C-37.20724609 155.49835938 -37.25042969 156.43421875 -37.29492188 157.3984375 C-37.400743 159.70298641 -37.50282807 162.00763839 -37.6015625 164.3125 C-46.13722024 167.39619138 -53.13190598 167.21243036 -61.46484375 163.5234375 C-65.45879916 161.25995272 -67.1810786 158.57395171 -68.6015625 154.3125 C-69.54181402 143.32234702 -67.78986776 135.34601091 -61.2890625 126.4375 C-50.55230586 113.83604157 -35.89818349 105.45910815 -21.9921875 96.84423828 C-19.78983096 95.43312871 -17.67699278 93.95134136 -15.5703125 92.40234375 C-12.6015625 90.3125 -12.6015625 90.3125 -10.6015625 90.3125 C-13.18362767 78.68204965 -15.76939824 67.07046647 -18.97119141 55.59228516 C-19.76106263 52.73565559 -20.52958655 49.87344562 -21.30078125 47.01171875 C-21.92128302 44.73681761 -22.54238002 42.46207875 -23.1640625 40.1875 C-23.45716309 39.09526123 -23.75026367 38.00302246 -24.05224609 36.87768555 C-24.48077881 35.32561401 -24.48077881 35.32561401 -24.91796875 33.7421875 C-25.29610718 32.35362549 -25.29610718 32.35362549 -25.68188477 30.93701172 C-26.93911857 27.34920621 -28.31158557 24.20269069 -31.4921875 22.0078125 C-33.90211056 21.21343045 -35.81980045 21.11303641 -38.3515625 21.1875 C-39.55039063 21.21457031 -39.55039063 21.21457031 -40.7734375 21.2421875 C-41.37671875 21.26539063 -41.98 21.28859375 -42.6015625 21.3125 C-43.18363807 16.05226149 -43.35650342 11.59627051 -40.3515625 7.0625 C-30.2487717 -4.49697227 -13.57151903 -5.86876499 0 0 Z " fill="#434343" transform="translate(2026.6015625,603.6875)"/>
<path d="M0 0 C0.86851593 0.0036557 1.73703186 0.0073114 2.63186646 0.01107788 C21.17847452 0.10211433 39.41553643 1.43375859 57.68359375 4.78515625 C67.6856456 6.61021746 77.75293085 7.86664905 87.84130859 9.10986328 C91.00312148 9.50038554 94.16367281 9.90014867 97.32421875 10.30078125 C113.48499201 12.32767898 129.4353596 13.56201435 145.72827148 13.56030273 C148.07098086 13.56250798 150.41323137 13.58081367 152.75585938 13.59960938 C161.32882172 13.63041692 169.45132714 13.19102328 177.875 11.375 C181.98917787 16.48265446 181.43046737 21.00725084 180.875 27.375 C179.66964937 35.44955315 174.89706703 41.08663418 168.875 46.375 C165.97160602 48.17026528 163.13012605 49.37342275 159.875 50.375 C158.82054687 50.72949219 157.76609375 51.08398438 156.6796875 51.44921875 C135.55001576 56.59062758 112.59881579 49.55191302 92.875 42.375 C91.61874752 41.92636041 90.36226747 41.47835709 89.10546875 41.03125 C86.68841491 40.16247584 84.28019927 39.27575438 81.875 38.375 C81.71390747 39.55098755 81.71390747 39.55098755 81.54956055 40.75073242 C80.37723102 48.87033372 78.69156459 56.73691219 76.6875 64.6875 C76.05443709 67.25325405 75.42333878 69.81935809 74.796875 72.38671875 C74.63655289 73.04345581 74.47623077 73.70019287 74.31105042 74.37683105 C72.56956817 81.55868477 70.99655852 88.77678576 69.4375 96 C66.9604491 107.45262674 64.42483884 118.88991123 61.8125 130.3125 C61.64292786 131.05426483 61.47335571 131.79602966 61.29864502 132.56027222 C59.19663256 141.74267502 57.03857744 150.90926545 54.8125 160.0625 C52.19866216 170.8125183 49.8103535 181.60737748 47.4934082 192.42456055 C46.13275383 198.75732266 44.72804846 205.06855517 43.1328125 211.34765625 C39.49389718 225.79566363 37.84653768 239.4648127 37.875 254.375 C25.51890822 257.80343834 12.67225053 257.87587005 0.875 252.375 C-3.27531504 249.51136108 -5.55982514 246.14773051 -7.125 241.375 C-7.390625 238.68359375 -7.390625 238.68359375 -7.375 235.8125 C-7.38273437 234.41837891 -7.38273437 234.41837891 -7.390625 232.99609375 C-6.70249795 223.61530292 -4.56840863 214.40690091 -2.5 205.25 C-2.24347656 204.10402344 -1.98695312 202.95804688 -1.72265625 201.77734375 C0.57717473 191.56435025 2.97936161 181.37591443 5.39285278 171.18930054 C7.90776251 160.57341265 10.32063874 149.93997872 12.65625 139.28295898 C14.4530002 131.13991709 16.39233029 123.03708892 18.375 114.9375 C20.95420507 104.39533275 23.30615414 93.82495315 25.52856445 83.20239258 C27.80577818 72.43937084 30.39977744 61.76148562 33.07202148 51.09082031 C35.35643198 41.90427288 37.22324105 32.69404022 38.875 23.375 C35.96228045 22.90078962 33.04953302 22.42675334 30.13671875 21.953125 C27.48366003 21.48288226 24.92428817 20.89716875 22.3125 20.25 C7.1370558 17.18549188 -9.14878355 18.73143194 -22.58203125 26.58203125 C-29.39626551 31.38653743 -35.10747133 38.16530785 -37.125 46.375 C-37.81967198 53.01031509 -38.35417869 59.83331758 -34.125 65.375 C-29.9788756 68.91140022 -25.36286144 69.04406758 -20.125 69.375 C-20.18587116 70.77199314 -20.27488885 72.1677696 -20.375 73.5625 C-20.42140625 74.33980469 -20.4678125 75.11710938 -20.515625 75.91796875 C-21.57687541 80.19698482 -24.10808441 82.63905324 -27.61328125 85.17578125 C-37.76052687 90.60729447 -47.47511777 91.02458401 -58.5 87.8125 C-66.59819997 84.7061918 -72.674289 80.00987421 -77.15234375 72.5625 C-81.5238248 62.73105667 -82.00272205 49.66957675 -78.5625 39.4375 C-70.66909132 21.47793252 -58.07529905 12.70551725 -40.625 5.31640625 C-27.40761553 0.4850517 -13.89285465 -0.12799043 0 0 Z " fill="#434343" transform="translate(1709.125,500.625)"/>
<path d="M0 0 C6.96573054 5.91156954 12.42437289 12.99913963 13.2109375 22.33203125 C13.42701803 34.55858802 10.18196325 45.09960898 1.88671875 54.265625 C-9.78429257 65.45753077 -23.96683539 70.84970934 -38.9921875 75.921875 C-40.60480469 76.49035156 -40.60480469 76.49035156 -42.25 77.0703125 C-49.43161195 79.46418315 -56.7884768 81.07447222 -64.1796875 82.671875 C-65.18990967 82.89504395 -66.20013184 83.11821289 -67.2409668 83.34814453 C-73.58000658 84.6675451 -79.52128601 85.21069882 -85.9921875 84.921875 C-83.08293351 98.83569845 -79.26089344 114.278014 -66.9921875 122.921875 C-52.607645 131.4249587 -38.07382388 134.65134075 -21.37890625 131.16796875 C-15.85180763 129.21857712 -10.31362779 126.61474573 -6.4296875 122.109375 C-5.9553125 121.7175 -5.4809375 121.325625 -4.9921875 120.921875 C-2.3046875 121.234375 -2.3046875 121.234375 0.0078125 121.921875 C1.14114404 125.69964679 1.19259031 128.1993679 -0.4296875 131.734375 C-8.63080148 146.35132644 -22.56352195 153.19168741 -37.9921875 157.921875 C-59.20106244 162.14828124 -80.47560813 158.91960093 -98.9921875 147.921875 C-115.62108493 136.62068257 -125.19203275 120.44230823 -129.64453125 101.0859375 C-132.74179266 72.89737864 -126.41500262 45.82900165 -108.67602539 23.38134766 C-84.45750517 -6.51117362 -34.26898304 -23.80039031 0 0 Z " fill="#434343" transform="translate(1953.9921875,606.078125)"/>
<path d="M0 0 C5.94788395 3.46959897 10.4055284 7.24106248 13 13.75 C16.21273648 39.26290737 -4.91503992 80.63710372 -20.0625 100.25 C-25.71459492 106.97290196 -31.50757188 112.87396022 -40.60546875 114.1015625 C-46.36595103 114.40349123 -50.6080888 113.77929082 -55.34375 110.3828125 C-60.91391336 104.89147221 -62.1398935 97.70610893 -62.24169922 90.22338867 C-62.31698042 62.6903975 -56.13520752 33.6706427 -37 12.75 C-36.43667969 12.10675781 -35.87335937 11.46351563 -35.29296875 10.80078125 C-26.41527816 1.21620194 -13.00750451 -5.29509033 0 0 Z " fill="#FDFDFD" transform="translate(2237,637.25)"/>
<path d="M0 0 C2.81938989 2.60251375 4.145725 4.5822755 4.80859375 8.37109375 C5.1175513 19.14825992 0.74669953 29.40598099 -6.5625 37.25 C-7.23667969 37.97703125 -7.91085937 38.7040625 -8.60546875 39.453125 C-20.45109909 51.120178 -39.9557936 59.82909269 -56.5625 60.25 C-57.71129999 43.40093355 -47.98823113 25.5206467 -37.3125 13.0625 C-27.98404824 3.09124736 -13.93323352 -6.84439541 0 0 Z " fill="#FCFCFC" transform="translate(1926.5625,614.75)"/>
<path d="M0 0 C1.32 0 2.64 0 4 0 C4 10.23 4 20.46 4 31 C2.35 30.67 0.7 30.34 -1 30 C-1.33 30.33 -1.66 30.66 -2 31 C-4.93228663 31.29322866 -7.14491883 31.50004247 -10 31 C-12.9375 28.5625 -12.9375 28.5625 -15 26 C-15.33 25.67 -15.66 25.34 -16 25 C-16.60597737 19.91844687 -17.10049297 14.64070495 -14 10.3125 C-9.92759533 7.17335473 -8.03606009 7.42209146 -3 8 C-2.34 8.33 -1.68 8.66 -1 9 C-0.67 6.03 -0.34 3.06 0 0 Z " fill="#404040" transform="translate(1589,2926)"/>
<path d="M0 0 C2.87029869 1.79393668 4.49131638 2.98263276 6 6 C6.51124099 11.20460087 6.86132441 15.56445931 4.125 20.125 C0.54238188 23.28613364 -2.10071595 23.33030825 -6.73828125 23.29296875 C-10.0542278 22.86344199 -11.74987627 21.39075646 -14 19 C-15.96752105 15.0649579 -15.46422595 10.2894478 -15 6 C-11.22755583 -0.28740695 -6.92794348 -0.897402 0 0 Z " fill="#3D3D3D" transform="translate(1681,2934)"/>
<path d="M0 0 C2.87029869 1.79393668 4.49131638 2.98263276 6 6 C6.51124099 11.20460087 6.86132441 15.56445931 4.125 20.125 C0.56518332 23.26601472 -2.11821241 23.39266737 -6.73828125 23.35546875 C-10.35701199 22.78672178 -11.88030223 20.84834388 -14 18 C-15.24067966 14.27796101 -15.54711324 10.86626692 -15 7 C-11.17841399 -0.00624102 -7.65219085 -0.99121643 0 0 Z " fill="#3E3E3E" transform="translate(1622,2934)"/>
<path d="M0 0 C0.99 0 1.98 0 3 0 C3.33 0.66 3.66 1.32 4 2 C4.66 1.34 5.32 0.68 6 0 C13.30434783 -0.46376812 13.30434783 -0.46376812 17 2 C17.99 1.34 18.98 0.68 20 0 C21.9375 -0.3359375 21.9375 -0.3359375 24 -0.375 C24.680625 -0.40335938 25.36125 -0.43171875 26.0625 -0.4609375 C28 0 28 0 29.73828125 1.4140625 C31.70130012 5.43733956 31.31447659 9.34163323 31.1875 13.75 C31.16719727 15.08224609 31.16719727 15.08224609 31.14648438 16.44140625 C31.11121309 18.62822578 31.06192752 20.81379966 31 23 C29.68 23 28.36 23 27 23 C26.93941406 21.71222656 26.87882812 20.42445313 26.81640625 19.09765625 C26.73201753 17.41925841 26.6473687 15.74087364 26.5625 14.0625 C26.52318359 13.21236328 26.48386719 12.36222656 26.44335938 11.48632812 C26.40146484 10.67744141 26.35957031 9.86855469 26.31640625 9.03515625 C26.27974854 8.2862915 26.24309082 7.53742676 26.20532227 6.76586914 C26.18228937 4.97538674 26.18228937 4.97538674 25 4 C22.54190002 3.7499227 22.54190002 3.7499227 20 4 C16.97906785 7.02093215 17.53323166 10.56372072 17.375 14.625 C17.33632812 15.42679688 17.29765625 16.22859375 17.2578125 17.0546875 C17.16346069 19.03607556 17.08063785 21.01800645 17 23 C15.68 23 14.36 23 13 23 C12.67 16.73 12.34 10.46 12 4 C9.69 4 7.38 4 5 4 C4.67 10.27 4.34 16.54 4 23 C2.68 23 1.36 23 0 23 C0 15.41 0 7.82 0 0 Z " fill="#3E3E3E" transform="translate(1692,2934)"/>
<path d="M0 0 C2.75569447 2.18159145 4.43588747 3.87177494 6 7 C6 8.98 6 10.96 6 13 C0.39 13 -5.22 13 -11 13 C-10.01 14.98 -9.02 16.96 -8 19 C-4.58357241 19.25015873 -4.58357241 19.25015873 -1 19 C-0.34 18.01 0.32 17.02 1 16 C2.32 16 3.64 16 5 16 C4.4336353 19.28491525 3.62788691 20.92565911 1 23 C-3.80262903 23.90354546 -7.84935415 23.68099449 -12.0625 21.1875 C-15.49020942 17.3175055 -15.32902242 13.38857115 -15.29296875 8.44921875 C-14.88206478 5.01406155 -13.52072694 3.29830986 -11 1 C-7.52736727 -0.73631636 -3.78806987 -0.60190402 0 0 Z " fill="#3B3B3B" transform="translate(1483,2934)"/>
<path d="M0 0 C0.9590625 -0.01675781 1.918125 -0.03351562 2.90625 -0.05078125 C5.97452532 0.37896213 6.63454245 0.90346321 8.5 3.3125 C8.93237305 5.48901367 8.93237305 5.48901367 9.01171875 7.98046875 C9.06489258 9.31948242 9.06489258 9.31948242 9.11914062 10.68554688 C9.14169922 11.61431641 9.16425781 12.54308594 9.1875 13.5 C9.23874023 14.91055664 9.23874023 14.91055664 9.29101562 16.34960938 C9.37348218 18.67045393 9.44263403 20.99092148 9.5 23.3125 C8.18 23.3125 6.86 23.3125 5.5 23.3125 C5.5 22.6525 5.5 21.9925 5.5 21.3125 C4.65115234 21.79783203 4.65115234 21.79783203 3.78515625 22.29296875 C1.31325993 23.3958148 -0.37134914 23.61133934 -3.0625 23.625 C-4.20912109 23.65013672 -4.20912109 23.65013672 -5.37890625 23.67578125 C-8.03346309 23.22113339 -8.89764248 22.44563845 -10.5 20.3125 C-11.01073645 16.88326957 -10.9061374 15.02807543 -9.1875 12 C-4.9535777 9.34149065 -0.4106408 9.48183244 4.5 9.3125 C4.17 7.6625 3.84 6.0125 3.5 4.3125 C2.22125 4.250625 0.9425 4.18875 -0.375 4.125 C-1.09429688 4.09019531 -1.81359375 4.05539063 -2.5546875 4.01953125 C-3.19664063 4.11621094 -3.83859375 4.21289062 -4.5 4.3125 C-5.49 5.7975 -5.49 5.7975 -6.5 7.3125 C-7.49 7.3125 -8.48 7.3125 -9.5 7.3125 C-9.1875 4.9375 -9.1875 4.9375 -8.5 2.3125 C-5.16602694 0.08985129 -3.90485109 0.01574537 0 0 Z " fill="#3E3E3E" transform="translate(1395.5,2933.6875)"/>
<path d="M0 0 C3.125 1.125 3.125 1.125 5 3 C5.8125 6.1875 5.8125 6.1875 6 9 C4.68 9 3.36 9 2 9 C1.71125 8.360625 1.4225 7.72125 1.125 7.0625 C0.17176549 4.84793921 0.17176549 4.84793921 -2 4 C-6.65275976 3.6947378 -6.65275976 3.6947378 -11 5 C-11 6.65 -11 8.3 -11 10 C-10.43152344 10.18175781 -9.86304688 10.36351563 -9.27734375 10.55078125 C4.31769723 14.97654584 4.31769723 14.97654584 7 19 C7.67092652 25.15015974 7.67092652 25.15015974 5.125 28.375 C0.27037073 32.08736356 -5.0924047 31.68549672 -11 31 C-13.93522834 29.67777564 -14.88274427 28.57504076 -17 26 C-17.875 23.1875 -17.875 23.1875 -18 21 C-16.35 21 -14.7 21 -13 21 C-12.67 22.65 -12.34 24.3 -12 26 C-8.31233808 27.18005182 -4.84889483 27.20993972 -1 27 C-0.01 26.34 0.98 25.68 2 25 C2.25030977 22.41619823 2.25030977 22.41619823 2 20 C1.43152344 19.81824219 0.86304688 19.63648437 0.27734375 19.44921875 C-12.81188119 15.18811881 -12.81188119 15.18811881 -16 12 C-16.78152069 5.07795958 -16.78152069 5.07795958 -14.1875 1.5 C-9.45609914 -0.72654158 -5.13902267 -0.62501627 0 0 Z " fill="#3D3D3D" transform="translate(1525,2926)"/>
<path d="M0 0 C2.89892791 1.36104933 3.90905195 2.44439682 6 5 C6 6.32 6 7.64 6 9 C4.68 9 3.36 9 2 9 C1.71125 8.360625 1.4225 7.72125 1.125 7.0625 C0.17176549 4.84793921 0.17176549 4.84793921 -2 4 C-3.91403076 3.80331266 -3.91403076 3.80331266 -6 3.8125 C-6.70125 3.79832031 -7.4025 3.78414062 -8.125 3.76953125 C-10.24524938 3.83487677 -10.24524938 3.83487677 -12 6 C-12 7.32 -12 8.64 -12 10 C-9.01790636 11.30466597 -6.09689241 12.2559188 -2.9375 13 C1.71598663 14.13050805 4.25598867 14.88398301 7 19 C7.50835292 22.8973724 7.32962183 24.50556726 5.125 27.8125 C1.83643617 31.19778629 -0.19265913 31.18164231 -4.8125 31.25 C-5.85019531 31.27578125 -6.88789062 31.3015625 -7.95703125 31.328125 C-11.42582145 30.95408344 -13.22110993 30.07568054 -16 28 C-18 25 -18 25 -18 21 C-16.68 21 -15.36 21 -14 21 C-13.608125 21.804375 -13.21625 22.60875 -12.8125 23.4375 C-11.2943376 26.13844288 -11.2943376 26.13844288 -8.953125 26.625 C-4.58388895 27.19614197 -1.8842007 27.27389426 2 25 C2 23.35 2 21.7 2 20 C0.44539063 19.54560547 0.44539063 19.54560547 -1.140625 19.08203125 C-2.5106931 18.65974999 -3.88046987 18.23652273 -5.25 17.8125 C-5.93191406 17.61591797 -6.61382813 17.41933594 -7.31640625 17.21679688 C-11.97570974 15.7466283 -14.40704606 14.14742003 -17 10 C-17.79785921 6.45395905 -17.17742666 5.28514999 -15.25 2.1875 C-10.34642154 -1.1129855 -5.73902697 -0.97586693 0 0 Z " fill="#3C3C3C" transform="translate(1293,2926)"/>
<path d="M0 0 C3.08073848 1.3831887 4.6384567 2.6384567 7 5 C7 6.32 7 7.64 7 9 C5.68 9 4.36 9 3 9 C2.236875 8.175 1.47375 7.35 0.6875 6.5 C-1.83585574 3.68599491 -1.83585574 3.68599491 -5.5625 3.4375 C-9.48101711 4.07871189 -10.62558226 4.89499219 -13 8 C-14.84389259 11.68778518 -14.35826551 15.96642448 -14 20 C-12.46523242 24.35264503 -12.46523242 24.35264503 -9 27 C-5.87942926 27.13855816 -2.99714416 26.89435208 0 26 C2.61974426 23.11725921 2.61974426 23.11725921 4 20 C5.32 20.33 6.64 20.66 8 21 C6.07517084 27.66287016 6.07517084 27.66287016 3 30 C-1.97221566 31.65740522 -8.121907 32.36539451 -12.984375 30.05859375 C-16.2464182 27.48287152 -17.74829656 24.87298374 -19 21 C-19.6491269 15.3918455 -19.76222978 10.55168205 -17.25 5.4375 C-11.87006543 -0.39076245 -7.77367837 -0.8765572 0 0 Z " fill="#3C3C3C" transform="translate(1373,2926)"/>
<path d="M0 0 C1.32 0 2.64 0 4 0 C4 2.97 4 5.94 4 9 C4.66 8.67 5.32 8.34 6 8 C8.05859375 7.796875 8.05859375 7.796875 10.4375 7.75 C11.61119141 7.71132812 11.61119141 7.71132812 12.80859375 7.671875 C15.58536705 8.08764854 16.28870548 8.80568367 18 11 C18.34057617 13.17651367 18.34057617 13.17651367 18.29296875 15.66796875 C18.28330078 16.56064453 18.27363281 17.45332031 18.26367188 18.37304688 C18.23853516 19.30181641 18.21339844 20.23058594 18.1875 21.1875 C18.16719727 22.59805664 18.16719727 22.59805664 18.14648438 24.03710938 C18.11113096 26.35865038 18.06178674 28.67903653 18 31 C16.68 31 15.36 31 14 31 C13.93941406 29.71222656 13.87882812 28.42445313 13.81640625 27.09765625 C13.73201753 25.41925841 13.6473687 23.74087364 13.5625 22.0625 C13.52318359 21.21236328 13.48386719 20.36222656 13.44335938 19.48632812 C13.38051758 18.27299805 13.38051758 18.27299805 13.31640625 17.03515625 C13.27974854 16.2862915 13.24309082 15.53742676 13.20532227 14.76586914 C13.18228937 12.97538674 13.18228937 12.97538674 12 12 C9.69 12 7.38 12 5 12 C4.67 18.27 4.34 24.54 4 31 C2.68 31 1.36 31 0 31 C0 20.77 0 10.54 0 0 Z " fill="#444444" transform="translate(1445,2926)"/>
<path d="M0 0 C1.32 0 2.64 0 4 0 C4.06058594 1.28777344 4.12117188 2.57554687 4.18359375 3.90234375 C4.26798247 5.58074159 4.3526313 7.25912636 4.4375 8.9375 C4.47681641 9.78763672 4.51613281 10.63777344 4.55664062 11.51367188 C4.59853516 12.32255859 4.64042969 13.13144531 4.68359375 13.96484375 C4.72025146 14.7137085 4.75690918 15.46257324 4.79467773 16.23413086 C4.81771063 18.02461326 4.81771063 18.02461326 6 19 C8.33944736 18.71269945 10.6739143 18.38063221 13 18 C14.18695553 14.43913342 14.35095418 11.02668976 14.5625 7.3125 C14.60568359 6.61060547 14.64886719 5.90871094 14.69335938 5.18554688 C14.7991736 3.45724794 14.90006581 1.7286489 15 0 C16.32 0 17.64 0 19 0 C19 7.59 19 15.18 19 23 C17.68 23 16.36 23 15 23 C15 22.34 15 21.68 15 21 C14.01 21.66 13.02 22.32 12 23 C5.04801097 23.66209419 5.04801097 23.66209419 1.76171875 21.5859375 C-0.93290259 17.63063966 -0.42912322 13.91409305 -0.25 9.25 C-0.23195313 8.36183594 -0.21390625 7.47367188 -0.1953125 6.55859375 C-0.14827374 4.37129152 -0.08257009 2.18620184 0 0 Z " fill="#404040" transform="translate(1305,2934)"/>
<path d="M0 0 C0.99 0 1.98 0 3 0 C3.33 0.66 3.66 1.32 4 2 C4.66 1.34 5.32 0.68 6 0 C8.05859375 -0.30078125 8.05859375 -0.30078125 10.4375 -0.3125 C11.61119141 -0.33763672 11.61119141 -0.33763672 12.80859375 -0.36328125 C15.56863458 0.09426563 16.29244337 0.81319277 18 3 C18.34057617 5.17651367 18.34057617 5.17651367 18.29296875 7.66796875 C18.28330078 8.56064453 18.27363281 9.45332031 18.26367188 10.37304688 C18.23853516 11.30181641 18.21339844 12.23058594 18.1875 13.1875 C18.16719727 14.59805664 18.16719727 14.59805664 18.14648438 16.03710938 C18.11113096 18.35865038 18.06178674 20.67903653 18 23 C16.68 23 15.36 23 14 23 C13.93941406 21.71222656 13.87882812 20.42445313 13.81640625 19.09765625 C13.73201753 17.41925841 13.6473687 15.74087364 13.5625 14.0625 C13.52318359 13.21236328 13.48386719 12.36222656 13.44335938 11.48632812 C13.38051758 10.27299805 13.38051758 10.27299805 13.31640625 9.03515625 C13.27974854 8.2862915 13.24309082 7.53742676 13.20532227 6.76586914 C13.18228937 4.97538674 13.18228937 4.97538674 12 4 C9.69 4 7.38 4 5 4 C4.67 10.27 4.34 16.54 4 23 C2.68 23 1.36 23 0 23 C0 15.41 0 7.82 0 0 Z " fill="#414141" transform="translate(1330,2934)"/>
<path d="M0 0 C1.32 0 2.64 0 4 0 C4.06058594 1.28777344 4.12117188 2.57554687 4.18359375 3.90234375 C4.26798247 5.58074159 4.3526313 7.25912636 4.4375 8.9375 C4.47681641 9.78763672 4.51613281 10.63777344 4.55664062 11.51367188 C4.59853516 12.32255859 4.64042969 13.13144531 4.68359375 13.96484375 C4.72025146 14.7137085 4.75690918 15.46257324 4.79467773 16.23413086 C4.81771063 18.02461326 4.81771063 18.02461326 6 19 C8.31 19 10.62 19 13 19 C13.33 12.73 13.66 6.46 14 0 C15.32 0 16.64 0 18 0 C18 7.59 18 15.18 18 23 C17.01 23 16.02 23 15 23 C14.67 22.34 14.34 21.68 14 21 C13.34 21.66 12.68 22.32 12 23 C9.94140625 23.3359375 9.94140625 23.3359375 7.5625 23.375 C6.78003906 23.40335938 5.99757813 23.43171875 5.19140625 23.4609375 C3 23 3 23 1.2265625 21.5859375 C-0.68487267 17.55609648 -0.31409431 13.64509484 -0.1875 9.25 C-0.17396484 8.36183594 -0.16042969 7.47367188 -0.14648438 6.55859375 C-0.11121309 4.37177422 -0.06192752 2.18620034 0 0 Z " fill="#404040" transform="translate(1550,2934)"/>
<path d="M0 0 C1.9375 1.4375 1.9375 1.4375 3 4 C3.537354 8.12475961 3.54136452 11.69435616 1.9375 15.5625 C-1.09377511 17.81151056 -3.35057669 17.52134619 -7 17 C-8.9375 15.5625 -8.9375 15.5625 -10 13 C-10.537354 8.87524039 -10.54136452 5.30564384 -8.9375 1.4375 C-5.90622489 -0.81151056 -3.64942331 -0.52134619 0 0 Z " fill="#F9F9F9" transform="translate(1680,2937)"/>
<path d="M0 0 C1.66015625 1.18359375 1.66015625 1.18359375 3 3 C3.3984375 5.59375 3.3984375 5.59375 3.375 8.5 C3.38273437 9.4590625 3.39046875 10.418125 3.3984375 11.40625 C3 14 3 14 1.6640625 15.8203125 C-0.92572613 17.65626595 -2.92187412 17.38476574 -6 17 C-8.03667615 15.45493534 -8.86073078 14.27853844 -10 12 C-10.57395143 4.88300221 -10.57395143 4.88300221 -8.375 1.5 C-5.31593299 -0.43204232 -3.5572204 -0.52979878 0 0 Z " fill="#F9F9F9" transform="translate(1621,2937)"/>
<path d="M0 0 C3.0625 2.375 3.0625 2.375 5 5 C5 5.66 5 6.32 5 7 C3.68 7 2.36 7 1 7 C0.34 6.01 -0.32 5.02 -1 4 C-4 3.58333333 -4 3.58333333 -7 4 C-9.32866229 5.88846183 -9.32866229 5.88846183 -9.1953125 9.0390625 C-9.17210937 10.22242187 -9.14890625 11.40578125 -9.125 12.625 C-9.10695313 13.81351563 -9.08890625 15.00203125 -9.0703125 16.2265625 C-9.04710937 17.14179688 -9.02390625 18.05703125 -9 19 C-6.36 19 -3.72 19 -1 19 C-0.34 17.68 0.32 16.36 1 15 C2.32 15 3.64 15 5 15 C4.69209738 17.84809926 4.34521809 19.58286148 2.5 21.8125 C-1.29085615 23.61315667 -4.88197356 23.70400084 -9 23 C-11.50160818 21.12379387 -12.61945652 19.76108697 -14 17 C-14.5755026 11.43406774 -14.97836883 6.64113481 -12.0625 1.75 C-7.94865926 -0.60076614 -4.63059032 -1.07181837 0 0 Z " fill="#404040" transform="translate(1436,2934)"/>
<path d="M0 0 C2.5625 1.8125 2.5625 1.8125 4 4 C4 4.99 4 5.98 4 7 C1.13275314 6.42655063 0.1385485 6.1385485 -2 4 C-5 3.58333333 -5 3.58333333 -8 4 C-10.08133467 7.122002 -10.2737822 7.93266989 -10.25 11.5 C-10.25515625 12.2734375 -10.2603125 13.046875 -10.265625 13.84375 C-10.12738062 16.29513844 -10.12738062 16.29513844 -8 19 C-6.02252878 19.36297936 -6.02252878 19.36297936 -3.875 19.1875 C-2.59625 19.125625 -1.3175 19.06375 0 19 C0.33 17.68 0.66 16.36 1 15 C2.32 15 3.64 15 5 15 C3.8125713 18.37960475 2.81573601 20.74093824 0 23 C-3.06518917 23.68880655 -5.9202274 23.58893897 -9 23 C-12.28175318 20.47031526 -13.69243777 18.92268669 -15 15 C-15.50149463 8.88176547 -15.06790897 5.90541964 -11 1 C-7.54924222 -0.72537889 -3.7732483 -0.49595093 0 0 Z " fill="#3D3D3D" transform="translate(1659,2934)"/>
<path d="M0 0 C2.35101344 1.80244364 2.89686881 3.21935419 3.28125 6.12890625 C3.4206966 9.65574309 3.30326835 12.30922209 1.875 15.5625 C0 17 0 17 -3 17.5 C-6 17 -6 17 -7.6640625 15.28515625 C-9.22478769 12.61549474 -9.40280272 11.0097008 -9.375 7.9375 C-9.38273437 7.08027344 -9.39046875 6.22304687 -9.3984375 5.33984375 C-8.48089242 -0.04848471 -4.96447458 -0.72398588 0 0 Z " fill="#F9F9F9" transform="translate(1586,2937)"/>
<path d="M0 0 C0 2.64 0 5.28 0 8 C1.32 8 2.64 8 4 8 C4 8.99 4 9.98 4 11 C2.68 11 1.36 11 0 11 C0.33 16.28 0.66 21.56 1 27 C1.99 27.33 2.98 27.66 4 28 C4 28.99 4 29.98 4 31 C1.125 31.125 1.125 31.125 -2 31 C-4 29 -4 29 -4.22705078 27.12060547 C-4.21657715 26.37697754 -4.20610352 25.63334961 -4.1953125 24.8671875 C-4.18886719 24.06152344 -4.18242188 23.25585938 -4.17578125 22.42578125 C-4.15902344 21.58402344 -4.14226562 20.74226563 -4.125 19.875 C-4.11597656 19.02550781 -4.10695313 18.17601563 -4.09765625 17.30078125 C-4.07405647 15.20040116 -4.03818483 13.10016556 -4 11 C-4.99 11 -5.98 11 -7 11 C-7 10.01 -7 9.02 -7 8 C-6.01 8 -5.02 8 -4 8 C-4.061875 7.05125 -4.12375 6.1025 -4.1875 5.125 C-4.125625 4.09375 -4.06375 3.0625 -4 2 C-1 0 -1 0 0 0 Z " fill="#3A3A3A" transform="translate(1415,2926)"/>
<path d="M0 0 C0 2.31 0 4.62 0 7 C1.32 7 2.64 7 4 7 C4 7.99 4 8.98 4 10 C2.68 10 1.36 10 0 10 C0.33 15.28 0.66 20.56 1 26 C1.99 26.33 2.98 26.66 4 27 C4 27.99 4 28.98 4 30 C1.125 30.125 1.125 30.125 -2 30 C-4 28 -4 28 -4.22705078 26.12060547 C-4.21657715 25.37697754 -4.20610352 24.63334961 -4.1953125 23.8671875 C-4.18886719 23.06152344 -4.18242188 22.25585938 -4.17578125 21.42578125 C-4.15902344 20.58402344 -4.14226562 19.74226563 -4.125 18.875 C-4.11597656 18.02550781 -4.10695313 17.17601563 -4.09765625 16.30078125 C-4.07405647 14.20040116 -4.03818483 12.10016556 -4 10 C-4.99 10 -5.98 10 -7 10 C-7 9.01 -7 8.02 -7 7 C-6.01 7 -5.02 7 -4 7 C-4 5.02 -4 3.04 -4 1 C-2 0 -2 0 0 0 Z " fill="#3E3E3E" transform="translate(1542,2927)"/>
<path d="M0 0 C1.32 0.33 2.64 0.66 4 1 C4.33 0.67 4.66 0.34 5 0 C7.33297433 -0.04092937 9.66705225 -0.04241723 12 0 C11.67 1.32 11.34 2.64 11 4 C9.02 4.33 7.04 4.66 5 5 C3.81304447 8.56086658 3.64904582 11.97331024 3.4375 15.6875 C3.39431641 16.38939453 3.35113281 17.09128906 3.30664062 17.81445312 C3.2008264 19.54275206 3.09993419 21.2713511 3 23 C2.01 23 1.02 23 0 23 C0 15.41 0 7.82 0 0 Z " fill="#313131" transform="translate(1494,2934)"/>
<path d="M0 0 C3.125 0.3125 3.125 0.3125 4.80859375 1.72265625 C6.84981939 5.73847999 6.44014928 9.63077895 6.3125 14.0625 C6.29896484 14.95066406 6.28542969 15.83882812 6.27148438 16.75390625 C6.23621309 18.94072578 6.18692752 21.12629966 6.125 23.3125 C4.805 23.3125 3.485 23.3125 2.125 23.3125 C2.11082031 22.05953125 2.09664062 20.8065625 2.08203125 19.515625 C2.03512562 17.86454672 1.98687825 16.21350618 1.9375 14.5625 C1.92879883 13.325 1.92879883 13.325 1.91992188 12.0625 C1.7614603 6.82191428 1.7614603 6.82191428 -1.42578125 2.734375 C-2.23402344 2.26515625 -3.04226563 1.7959375 -3.875 1.3125 C-2.875 0.3125 -2.875 0.3125 0 0 Z " fill="#444444" transform="translate(1716.875,2933.6875)"/>
<path d="M0 0 C1.32 0 2.64 0 4 0 C4 7.59 4 15.18 4 23 C2.68 23 1.36 23 0 23 C0 15.41 0 7.82 0 0 Z " fill="#434343" transform="translate(1599,2934)"/>
<path d="M0 0 C3.5625 0.375 3.5625 0.375 5.5 2.1875 C6.5625 4.375 6.5625 4.375 6.5625 7.375 C2.2725 7.375 -2.0175 7.375 -6.4375 7.375 C-5.07318773 0.55343866 -5.07318773 0.55343866 0 0 Z " fill="#EEEEEE" transform="translate(1478.4375,2936.625)"/>
<path d="M0 0 C-0.25561323 2.3431213 -0.59270772 4.67843403 -1 7 C-3.95664519 8.4783226 -6.74229737 8.06032783 -10 8 C-10.625 5.625 -10.625 5.625 -11 3 C-7.88866897 -0.11133103 -4.26881718 0 0 0 Z " fill="#F8F8F8" transform="translate(1400,2946)"/>
<path d="M0 0 C3.625 -0.1875 3.625 -0.1875 7 0 C6.67 1.32 6.34 2.64 6 4 C3.69 4.33 1.38 4.66 -1 5 C-1.33 4.34 -1.66 3.68 -2 3 C-1.34 2.01 -0.68 1.02 0 0 Z " fill="#464646" transform="translate(1499,2934)"/>
</svg>
