<svg viewBox="0 0 1000 1000" xmlns="http://www.w3.org/2000/svg"><path d="M339.9 0 L279.8 0 C259 0 240.5 5.1 226.3 14.7 C217.2 20.4 205.1 35.1 205 45.2 L204.4 108.4 L186.4 118 C171.2 125.1 166.7 152.2 144.5 170.4 L129.7 185.1 C116.9 196.5 100.7 188.1 97.2 184.9 C91.1 179.7 77.1 175.8 66.9 173.4 C51.3 169.3 38.8 164.3 28.2 164.3 L18.6 164.3 C7.9 164.3 -5.1 166.1 -13.4 171.1 C-34.5 180.7 -54.2 205.9 -66.3 223.6 C-77.1 239.6 -82.5 260.8 -82.7 274.9 C-82.9 285.6 -81.9 297.2 -80.2 304.8 C-74.4 345.6 -61.8 386.8 -34.9 418.5 C-12.1 445.8 13.5 454.8 30.8 461.5 C37.1 463.9 49 466.5 58.5 467 C82.5 467.8 105.7 463.3 128.2 457.4 C157.1 448.2 179.5 434.7 204.7 428.4 C229.7 422 251.8 433.6 267.1 428.4 L278 451.4 C288.8 466.7 298.5 487.3 296.3 496.6 C293.2 506 286.1 515.2 275.4 517.6 C267.9 519.5 258.1 517.5 253 493.5 L252.3 486.7 C267.1 474.8 285.3 467.5 305.5 459.5 C325.5 451.7 350.9 438.6 368.7 423.5 C377.5 416.2 387.6 408.2 393.3 399.1 C398.9 391.5 410 377.4 414.5 362 C418.4 346.8 427.8 327.8 443.3 326.8 C458.1 325.8 464.2 338.6 460.5 363.6 C457.3 387.8 446.5 418.2 426.8 446.8 C412.7 469.8 393.5 487.4 377 493.5 C362.3 499.1 348.3 493.3 334.6 486.1 C318.7 478.3 307.3 469.1 309.2 454.9 C312.5 438.7 329.2 438.7 329.2 438.7 C341.3 438.7 353.2 434.4 358.5 426.4 C363.1 419.2 365.5 407.5 356.4 396.2 C347.9 386.3 328.1 386.6 306.5 389.1 C285 391.8 258.1 394.1 243.4 385.4 C232.6 378.7 223.9 368.3 220.8 356.7 C213.8 318.2 242.2 277.9 291.8 258.7 C323.8 245.8 346.1 207 360.9 177.5 L388.3 149.7 C399.9 138.6 402.8 134.8 418.6 124.7 C438.3 110.8 448.9 92.2 469.4 72.7 C489 53.2 512.7 19.1 526 0 L339.9 0 Z" fill="none" stroke="black" stroke-width="5"/></svg>